**ABCDEFGHIJKLMNOPQRSTUVWXYZabcdefghijklmnopqrstuvwxyz**************************
**PARASOLID !"#$%&'()*+,-./:;<=>?@[\]^_`{|}~0123456789**************************
**PART1;
MC=AMD64;
MC_MODEL=Intel64 Family 6 Model 158 Stepping 9, GenuineIntel;
MC_ID=unknown;
OS=Windows_NT;
OS_RELEASE=unknown;
FRU=Parasolid Version 31.1, build 278,  7-15-2019;
APPL=SOLIDWORKS 2020-2019269;
SITE=;
USER=unknown;
FORMAT=text;
GUISE=transmit;
KEY=107(0306)-0500T;
FILE=107(0306)-0500T.x_t;
DATE=Fri Oct 23 02:24:43 2020;
**PART2;
SCH=SCH_3101278_31100;
USFLD_SIZE=0;
**PART3;
**END_OF_HEADER*****************************************************************
T51 : TRANSMIT FILE created by modeller version 310127823 SCH_3101278_31100_1300
6222 0 12 34 CCCCCCI4 mesh1006 0 I8 polyline1008 0 CCCCCCCDI5 owner1040 0 CCCCCC
I13 boundary_mesh1006 0 I17 boundary_polyline1008 0 CCCA16 index_map_offset0 0 1
 dA9 index_map82 0 A17 node_id_index_map82 0 A20 schema_embedding_map82 0 A5 chi
ld12 0 A14 lowest_node_id0 0 1 dA16 mesh_offset_data206 0 Z1 2239 2 3 0 0 0 0 0
 0 1e3 1e-8 0 4 0 1 0 1 1 5 6 7 8 0 0 9 10 11 0 0 0 0 0 0 0 81 255 2 2 2173 12 1
 13 0 0 0 0 14 70 11 CI9 list_type0 0 1 uI10 notransmit0 0 1 lCCCDCCDI12 finger_
index0 0 1 dI12 finger_block1012 0 CZ3 0 4 T1 0 0 9 20 1 15 15 13 255 5 99 0 1 0
 16 0 0 17 0 54 255 6 1763 0 18 19 0 0 +-153e-6 79e-5 1e-5 1 0 0 7e-6 3e-6 0 0 -
1 31 255 7 1771 0 20 21 0 0 +-153e-6 797e-6 1e-5 0 0 1 1 0 0 3e-6 29 255 8 1531
 0 11 22 0 -153e-6 79e-5 5e-4 19 8 CCCCCCCA5 owner12 0 Z9 33 0 1 17 0 23 V0 16 2
55 10 1542 0 ?24 0 25 26 0 0 1 18 255 11 1529 0 24 0 27 8 ?1 17 255 24 0 28 29 3
0 11 31 10 0 32 +18 27 1521 0 33 11 34 22 ?1 17 33 0 35 36 32 27 37 38 0 39 +18
 34 1513 0 40 27 41 42 ?1 29 22 1523 0 27 42 8 -153e-6 8e-4 49e-5 29 42 1515 0 3
4 43 22 -153e-6 8e-4 1e-5 29 43 1507 0 41 44 42 -153e-6 79e-5 0 18 41 1505 0 45
 34 46 43 ?1 29 44 1499 0 46 47 43 -153e-6 -79e-5 0 18 46 1497 0 48 41 49 44 ?1
 29 47 1491 0 49 50 44 -153e-6 -8e-4 1e-5 18 49 1489 0 51 46 52 47 ?1 29 50 1483
 0 52 53 47 -153e-6 -8e-4 49e-5 18 52 1481 0 54 49 55 50 ?1 29 53 1480 0 55 56 5
0 -153e-6 -79e-5 5e-4 18 55 1478 0 57 52 58 53 ?1 29 56 1471 0 58 59 53 -15e-5 -
797e-6 1e-5 18 58 1469 0 60 55 61 56 ?1 29 59 1467 0 61 62 56 -15e-5 -79e-5 3e-6
 18 61 1465 0 63 58 64 59 ?1 29 62 1458 0 64 65 59 -15e-5 79e-5 3e-6 18 64 1456
 0 66 61 67 62 ?1 29 65 1454 0 67 68 62 -15e-5 797e-6 1e-5 18 67 1452 0 69 64 70
 65 ?1 29 68 1445 0 70 71 65 -15e-5 797e-6 49e-5 18 70 1443 0 72 67 73 68 ?1 29
 71 1441 0 73 74 68 -15e-5 79e-5 497e-6 18 73 1439 0 75 70 76 71 ?1 29 74 1432 0
 76 77 71 -15e-5 -797e-6 49e-5 18 76 1430 0 78 73 79 74 ?1 29 77 1428 0 79 80 74
 -15e-5 -79e-5 497e-6 18 79 1426 0 81 76 82 77 ?1 29 80 1420 0 82 83 77 153e-6 7
9e-5 5e-4 18 82 1418 0 84 79 85 80 ?1 29 83 1412 0 85 86 80 153e-6 8e-4 49e-5 18
 85 1410 0 87 82 88 83 ?1 29 86 1404 0 88 89 83 153e-6 8e-4 1e-5 18 88 1402 0 90
 85 91 86 ?1 29 89 1396 0 91 92 86 153e-6 79e-5 0 18 91 1394 0 93 88 94 89 ?1 29
 92 1388 0 94 95 89 153e-6 -79e-5 0 18 94 1386 0 96 91 97 92 ?1 29 95 1380 0 97
 98 92 153e-6 -8e-4 1e-5 18 97 1378 0 99 94 100 95 ?1 29 98 1372 0 100 101 95 15
3e-6 -79e-5 5e-4 18 100 1370 0 102 97 103 98 ?1 29 101 1369 0 103 104 98 153e-6
 -8e-4 49e-5 18 103 1367 0 105 100 106 101 ?1 29 104 1360 0 106 107 101 15e-5 -7
97e-6 1e-5 18 106 1358 0 108 103 109 104 ?1 29 107 1356 0 109 110 104 15e-5 -79e
-5 3e-6 18 109 1354 0 111 106 112 107 ?1 29 110 1347 0 112 113 107 15e-5 79e-5 3
e-6 18 112 1345 0 114 109 115 110 ?1 29 113 1343 0 115 116 110 15e-5 797e-6 1e-5
 18 115 1341 0 117 112 118 113 ?1 29 116 1334 0 118 119 113 15e-5 -797e-6 49e-5
 18 118 1332 0 120 115 121 116 ?1 29 119 1330 0 121 122 116 15e-5 -79e-5 497e-6
 18 121 1328 0 123 118 124 119 ?1 29 122 1321 0 124 125 119 15e-5 797e-6 49e-5 1
8 124 1319 0 126 121 127 122 ?1 29 125 1317 0 127 128 122 15e-5 79e-5 497e-6 18
 127 1315 0 129 124 130 125 ?1 29 128 897 0 130 131 125 -39e-5 79e-5 0 18 130 89
5 0 132 127 133 128 ?1 29 131 893 0 133 134 128 -39e-5 -79e-5 0 18 133 891 0 135
 130 136 131 ?1 29 134 878 0 136 137 131 -39e-5 -8e-4 1e-5 18 136 876 0 138 133
 139 134 ?1 29 137 874 0 139 140 134 -39e-5 -8e-4 49e-5 18 139 872 0 141 136 142
 137 ?1 29 140 859 0 142 143 137 -39e-5 79e-5 5e-4 18 142 857 0 29 139 144 140 ?
1 29 143 855 0 144 145 140 -39e-5 -79e-5 5e-4 18 144 853 0 146 142 147 143 ?1 29
 145 840 0 147 148 143 -39e-5 8e-4 1e-5 18 147 838 0 149 144 150 145 ?1 29 148 8
36 0 150 151 145 -39e-5 8e-4 49e-5 18 150 834 0 152 147 153 148 ?1 29 151 821 0
 153 154 148 -4e-4 79e-5 49e-5 18 153 819 0 155 150 156 151 ?1 29 154 817 0 156
 157 151 -4e-4 -79e-5 49e-5 18 156 815 0 158 153 159 154 ?1 29 157 813 0 159 160
 154 -4e-4 -79e-5 1e-5 18 159 811 0 161 156 162 157 ?1 29 160 810 0 162 163 157
 -4e-4 79e-5 1e-5 18 162 808 0 164 159 165 160 ?1 29 163 801 0 165 166 160 39e-5
 -79e-5 0 18 165 799 0 167 162 168 163 ?1 29 166 797 0 168 169 163 39e-5 79e-5 0
 18 168 795 0 170 165 171 166 ?1 29 169 782 0 171 172 166 39e-5 8e-4 49e-5 18 17
1 780 0 173 168 174 169 ?1 29 172 778 0 174 175 169 39e-5 8e-4 1e-5 18 174 776 0
 176 171 177 172 ?1 29 175 763 0 177 178 172 39e-5 79e-5 5e-4 18 177 761 0 179 1
74 180 175 ?1 29 178 759 0 180 181 175 39e-5 -79e-5 5e-4 18 180 757 0 182 177 18
3 178 ?1 29 181 744 0 183 184 178 39e-5 -8e-4 49e-5 18 183 742 0 185 180 186 181
 ?1 29 184 740 0 186 187 181 39e-5 -8e-4 1e-5 18 186 738 0 188 183 189 184 ?1 29
 187 725 0 189 190 184 4e-4 -79e-5 49e-5 18 189 723 0 191 186 192 187 ?1 29 190
 721 0 192 193 187 4e-4 79e-5 49e-5 18 192 719 0 194 189 195 190 ?1 29 193 717 0
 195 196 190 4e-4 79e-5 1e-5 18 195 715 0 197 192 198 193 ?1 29 196 714 0 198 19
9 193 4e-4 -79e-5 1e-5 18 198 712 0 200 195 201 196 ?1 29 199 528 0 201 202 196
 -15e-5 -797e-6 13e-6 18 201 526 0 203 198 204 199 ?1 29 202 525 0 204 205 199 -
15e-5 -797e-6 487e-6 18 204 523 0 206 201 207 202 ?1 29 205 522 0 207 208 202 15
e-5 -797e-6 13e-6 18 207 520 0 209 204 210 205 ?1 29 208 519 0 210 211 205 15e-5
 -797e-6 487e-6 18 210 517 0 212 207 213 208 ?1 29 211 506 0 213 214 208 -15e-5
 -787e-6 497e-6 18 213 504 0 215 210 216 211 ?1 29 214 503 0 216 217 211 -15e-5
 787e-6 497e-6 18 216 501 0 218 213 219 214 ?1 29 217 500 0 219 220 214 15e-5 -7
87e-6 497e-6 18 219 498 0 221 216 222 217 ?1 29 220 497 0 222 223 217 15e-5 787e
-6 497e-6 18 222 495 0 224 219 225 220 ?1 29 223 484 0 225 226 220 -15e-5 787e-6
 3e-6 18 225 482 0 227 222 228 223 ?1 29 226 481 0 228 229 223 -15e-5 -787e-6 3e
-6 18 228 479 0 230 225 231 226 ?1 29 229 478 0 231 232 226 15e-5 787e-6 3e-6 18
 231 476 0 233 228 234 229 ?1 29 232 475 0 234 235 229 15e-5 -787e-6 3e-6 18 234
 473 0 236 231 237 232 ?1 29 235 462 0 237 238 232 -15e-5 797e-6 487e-6 18 237 4
60 0 239 234 240 235 ?1 29 238 459 0 240 241 235 -15e-5 797e-6 13e-6 18 240 457
 0 242 237 243 238 ?1 29 241 456 0 243 244 238 15e-5 797e-6 487e-6 18 243 454 0
 245 240 246 241 ?1 29 244 453 0 246 0 241 15e-5 797e-6 13e-6 18 246 451 0 247 2
43 0 244 ?1 17 247 0 248 117 233 246 249 250 0 251 +15 255 248 1337 0 114 252 0
 17 117 0 248 114 247 115 253 254 0 255 +17 233 0 248 247 114 231 256 257 0 258
 +17 249 0 259 260 261 231 247 250 0 262 -16 250 543 0 ?247 263 264 265 0 0 1 17
 251 0 266 267 268 246 269 270 0 261 -15 266 327 0 251 271 0 17 267 0 266 272 25
1 240 261 273 0 274 +17 268 0 266 251 272 243 275 276 0 277 +17 269 0 278 279 25
3 243 251 270 0 0 +16 270 452 0 ?269 280 281 282 0 0 1 17 261 0 259 249 283 246
 267 273 0 253 -15 259 595 0 249 284 0 17 283 0 259 261 260 240 227 264 0 267 -1
6 273 468 0 ?267 285 276 286 0 0 1 17 253 0 278 269 287 246 117 254 0 0 -15 278
 1573 0 269 288 0 17 287 0 278 253 289 115 290 291 0 0 +16 254 1342 0 ?117 292 2
93 294 0 0 1 16 292 1346 0 ?114 257 254 295 0 0 1 16 293 1336 0 ?120 254 296 297
 0 0 1 30 255 294 1344 0 254 297 295 0 -15e-5 797e-6 25e-5 0 0 1 30 297 1338 0 2
93 298 294 0 -15e-5 -797e-6 25e-5 0 0 -1 31 295 1348 0 292 294 299 0 -15e-5 79e-
5 1e-5 1 0 0 0 0 -1 7e-6 30 299 1351 0 257 295 300 0 -15e-5 -542101086242752e-34
 3e-6 0 1 0 16 257 1349 0 ?233 301 292 299 0 0 1 30 300 1357 0 301 299 302 0 -15
e-5 -542101086242752e-34 3e-6 0 1 0 16 301 1355 0 ?111 303 257 300 0 0 1 31 302
 1361 0 303 300 304 0 -15e-5 -79e-5 1e-5 1 0 0 0 0 -1 7e-6 16 303 1359 0 ?108 30
5 301 302 0 0 1 30 304 1364 0 305 302 306 0 -15e-5 -797e-6 25e-5 0 0 -1 16 305 1
362 0 ?209 307 303 304 0 0 1 31 306 1375 0 307 304 308 0 +153e-6 -79e-5 49e-5 1
 0 0 0 0 -1 1e-5 16 307 1373 0 ?309 310 305 306 0 0 1 30 308 1383 0 310 306 311
 0 +153e-6 -8e-4 5e-4 0 0 -1 16 310 1381 0 ?99 312 307 308 0 0 1 31 311 1391 0 3
12 308 313 0 +153e-6 -79e-5 1e-5 1 0 0 0 0 -1 1e-5 16 312 1389 0 ?96 314 310 311
 0 0 1 30 313 1399 0 314 311 315 0 +153e-6 0 0 0 1 0 16 314 1397 0 ?93 316 312 3
13 0 0 1 31 315 1407 0 316 313 317 0 +153e-6 79e-5 1e-5 1 0 0 0 0 -1 1e-5 16 316
 1405 0 ?90 318 314 315 0 0 1 30 317 1415 0 318 315 319 0 +153e-6 8e-4 5e-4 0 0
 1 16 318 1413 0 ?87 320 316 317 0 0 1 31 319 1423 0 320 317 321 0 +153e-6 79e-5
 49e-5 1 0 0 0 0 -1 1e-5 16 320 1421 0 ?84 322 318 319 0 0 1 30 321 1429 0 322 3
19 323 0 --15e-5 -542101086242752e-34 497e-6 0 1 0 16 322 1427 0 ?81 324 320 321
 0 0 1 31 323 1433 0 324 321 325 0 +-15e-5 -79e-5 49e-5 1 0 0 0 0 -1 7e-6 16 324
 1431 0 ?326 327 322 323 0 0 1 30 325 1436 0 327 323 328 0 +-15e-5 -797e-6 1e-5
 0 0 -1 16 327 1434 0 ?206 329 324 325 0 0 1 30 328 1442 0 329 325 330 0 --15e-5
 -542101086242752e-34 497e-6 0 1 0 16 329 1440 0 ?218 331 327 328 0 0 1 31 330 1
446 0 331 328 332 0 +-15e-5 79e-5 49e-5 1 0 0 0 0 -1 7e-6 16 331 1444 0 ?75 333
 329 330 0 0 1 30 332 1449 0 333 330 334 0 +-15e-5 797e-6 49e-5 0 0 1 16 333 144
7 0 ?72 335 331 332 0 0 1 30 334 1455 0 335 332 336 0 +-15e-5 797e-6 49e-5 0 0 1
 16 335 1453 0 ?242 337 333 334 0 0 1 31 336 1459 0 337 334 338 0 +-15e-5 79e-5
 1e-5 1 0 0 0 0 -1 7e-6 16 337 1457 0 ?69 339 335 336 0 0 1 30 338 1462 0 339 33
6 340 0 +-15e-5 79e-5 3e-6 0 1 0 16 339 1460 0 ?66 341 337 338 0 0 1 30 340 1468
 0 341 338 342 0 +-15e-5 79e-5 3e-6 0 1 0 16 341 1466 0 ?230 343 339 340 0 0 1 3
1 342 1472 0 343 340 344 0 +-15e-5 -79e-5 1e-5 1 0 0 0 0 -1 7e-6 16 343 1470 0 ?
63 345 341 342 0 0 1 30 344 1475 0 345 342 346 0 +-15e-5 -797e-6 1e-5 0 0 -1 16
 345 1473 0 ?60 347 343 344 0 0 1 31 346 1486 0 347 344 348 0 --153e-6 -79e-5 49
e-5 1 0 0 0 0 -1 1e-5 16 347 1484 0 ?349 350 345 346 0 0 1 30 348 1494 0 350 346
 351 0 --153e-6 -8e-4 49e-5 0 0 -1 16 350 1492 0 ?54 352 347 348 0 0 1 31 351 15
02 0 352 348 353 0 --153e-6 -79e-5 1e-5 1 0 0 0 0 -1 1e-5 16 352 1500 0 ?51 354
 350 351 0 0 1 30 353 1510 0 354 351 355 0 --153e-6 -79e-5 0 0 1 0 16 354 1508 0
 ?48 356 352 353 0 0 1 31 355 1518 0 356 353 357 0 --153e-6 79e-5 1e-5 1 0 0 0 0
 -1 1e-5 16 356 1516 0 ?45 358 354 355 0 0 1 30 357 1526 0 358 355 359 0 --153e-
6 8e-4 1e-5 0 0 1 16 358 1524 0 ?40 38 356 357 0 0 1 31 359 1534 0 38 357 360 0
 --153e-6 79e-5 49e-5 1 0 0 0 0 -1 1e-5 16 38 1532 0 ?33 25 358 359 0 0 1 30 360
 1539 0 25 359 26 0 -153e-6 -79e-5 5e-4 0 1 0 16 25 1537 0 ?102 10 38 360 0 0 1
 30 26 1544 0 10 360 361 0 +-153e-6 0 5e-4 0 1 0 31 361 1657 0 362 26 363 0 +153
e-6 -79e-5 497e-6 0 -1 0 0 0 -1 3e-6 16 362 1617 0 ?123 364 20 361 0 0 1 31 363
 1656 0 364 361 365 0 +153e-6 -797e-6 49e-5 0 0 1 1 0 0 3e-6 16 364 1615 0 ?105
 366 362 363 0 0 1 31 365 1655 0 366 363 367 0 +153e-6 79e-5 497e-6 0 -1 0 0 0 -
1 3e-6 16 366 1612 0 ?368 369 364 365 0 0 1 31 367 1654 0 369 365 370 0 +153e-6
 -797e-6 1e-5 0 0 1 1 0 0 3e-6 16 369 1605 0 ?371 372 366 367 0 0 1 31 370 1653
 0 372 367 373 0 +153e-6 797e-6 49e-5 0 0 1 1 0 0 3e-6 16 372 1602 0 ?374 375 36
9 370 0 0 1 31 373 1652 0 375 370 376 0 +153e-6 -79e-5 3e-6 0 -1 0 0 0 -1 3e-6 1
6 375 1599 0 ?377 291 372 373 0 0 1 31 376 1651 0 291 373 378 0 +153e-6 797e-6 1
e-5 0 0 1 1 0 0 3e-6 16 291 1596 0 ?287 379 375 376 0 0 1 31 378 1650 0 379 376
 380 0 +153e-6 79e-5 3e-6 0 -1 0 0 0 -1 3e-6 16 379 1589 0 ?381 382 291 378 0 0
 1 31 380 1778 0 383 378 384 0 +-153e-6 -797e-6 49e-5 0 0 1 1 0 0 3e-6 16 383 17
38 0 ?78 385 0 380 0 0 1 31 384 1777 0 385 380 386 0 +-153e-6 -79e-5 497e-6 0 -1
 0 0 0 -1 3e-6 16 385 1736 0 ?57 387 383 384 0 0 1 31 386 1776 0 387 384 388 0 +
-153e-6 -797e-6 1e-5 0 0 1 1 0 0 3e-6 16 387 1733 0 ?389 390 385 386 0 0 1 31 38
8 1775 0 390 386 391 0 +-153e-6 79e-5 497e-6 0 -1 0 0 0 -1 3e-6 16 390 1726 0 ?3
92 393 387 388 0 0 1 31 391 1774 0 393 388 394 0 +-153e-6 -79e-5 3e-6 0 -1 0 0 0
 -1 3e-6 16 393 1723 0 ?395 396 390 391 0 0 1 31 394 1773 0 396 391 21 0 +-153e-
6 797e-6 49e-5 0 0 1 1 0 0 3e-6 16 396 1720 0 ?397 398 393 394 0 0 1 31 21 1772
 0 398 394 7 0 +-153e-6 79e-5 3e-6 0 -1 0 0 0 -1 3e-6 16 398 1717 0 ?399 20 396
 21 0 0 1 17 399 0 400 401 402 64 403 398 0 0 +16 20 1710 0 ?404 362 398 7 0 0 1
 17 404 0 405 406 407 34 408 20 0 0 +15 405 1692 0 404 409 0 17 406 0 405 410 40
4 27 40 358 0 397 -17 407 0 405 404 274 67 242 335 0 0 -17 408 0 411 412 413 67
 404 20 0 407 -15 411 1690 0 403 18 0 17 412 0 411 403 408 64 69 337 0 399 -17 4
13 0 411 408 403 34 45 356 0 404 -17 403 0 411 413 412 41 399 398 0 402 -17 45 0
 414 415 416 41 413 356 0 417 +15 414 1105 0 416 418 0 17 415 0 414 419 45 130 4
17 420 0 421 -17 416 0 414 45 419 34 149 422 0 413 -17 417 0 423 48 132 41 415 4
20 0 403 +15 423 150 0 417 424 0 17 48 0 423 135 417 46 402 354 0 425 +17 132 0
 423 417 135 130 426 427 0 415 +16 420 899 0 ?417 428 427 429 0 0 1 16 428 1316
 0 ?129 430 420 431 0 0 1 16 427 896 0 ?132 420 432 433 0 0 1 30 429 901 0 420 4
33 434 0 -0 79e-5 0 -1 0 0 30 433 898 0 427 435 429 0 --39e-5 -528548559086684e-
34 0 135525271560688e-30 -1 0 31 434 1060 0 436 429 437 0 -39e-5 -79e-5 1e-5 0 0
 -1 -1 0 0 1e-5 16 436 1016 0 ?200 438 439 434 0 0 1 31 437 1059 0 438 434 440 0
 -39e-5 -79e-5 49e-5 0 0 1 1 0 0 1e-5 16 438 1014 0 ?185 441 436 437 0 0 1 31 44
0 1058 0 441 437 442 0 +39e-5 -79e-5 1e-5 1 0 0 0 0 -1 1e-5 16 441 1012 0 ?443 4
44 438 440 0 0 1 31 442 1057 0 444 440 445 0 +39e-5 -79e-5 1e-5 1084202172485502
e-29 -1 0 1 1084202172485502e-29 0 1e-5 16 444 1011 0 ?446 447 441 442 0 0 1 31
 445 1056 0 447 442 448 0 +39e-5 -79e-5 49e-5 0 -1 -1084202172485502e-29 0 10842
02172485502e-29 -1 1e-5 16 447 1010 0 ?449 450 444 445 0 0 1 31 448 1055 0 450 4
45 451 0 +39e-5 -79e-5 49e-5 1 0 0 0 0 -1 1e-5 16 450 1009 0 ?452 453 447 448 0
 0 1 31 451 1054 0 453 448 454 0 -39e-5 79e-5 1e-5 0 1 0 0 0 1 1e-5 16 453 1004
 0 ?455 456 450 451 0 0 1 31 454 1053 0 456 451 457 0 -39e-5 79e-5 49e-5 0 1 0 0
 0 1 1e-5 16 456 1001 0 ?458 459 453 454 0 0 1 31 457 1052 0 459 454 460 0 +39e-
5 79e-5 1e-5 1 -542101086242751e-29 0 542101086242751e-29 1 0 1e-5 16 459 996 0
 ?461 462 456 457 0 0 1 31 460 1051 0 462 457 463 0 +39e-5 79e-5 1e-5 0 0 -1 -1
 0 0 1e-5 16 462 995 0 ?464 465 459 460 0 0 1 31 463 1050 0 465 460 466 0 +39e-5
 79e-5 49e-5 0 0 1 1 0 0 1e-5 16 465 994 0 ?467 468 462 463 0 0 1 31 466 1049 0
 468 463 469 0 +39e-5 79e-5 49e-5 1 0 542101086242751e-29 542101086242751e-29 0
 -1 1e-5 16 468 993 0 ?470 471 465 466 0 0 1 31 469 1189 0 382 466 472 0 --39e-5
 79e-5 1e-5 0 0 -1 -1 0 0 1e-5 16 382 1145 0 ?164 473 379 469 0 0 1 31 472 1188
 0 473 469 474 0 --39e-5 79e-5 49e-5 0 0 1 1 0 0 1e-5 16 473 1143 0 ?152 475 382
 472 0 0 1 31 474 1187 0 475 472 476 0 +-39e-5 79e-5 1e-5 -1 0 0 0 0 1 1e-5 16 4
75 1141 0 ?477 478 473 474 0 0 1 31 476 1186 0 478 474 479 0 +-39e-5 79e-5 1e-5
 0 1 0 0 0 1 1e-5 16 478 1140 0 ?480 481 475 476 0 0 1 31 479 1185 0 481 476 482
 0 +-39e-5 79e-5 49e-5 0 1 0 0 0 1 1e-5 16 481 1139 0 ?483 484 478 479 0 0 1 31
 482 1184 0 484 479 485 0 +-39e-5 79e-5 49e-5 -1 0 0 0 0 1 1e-5 16 484 1138 0 ?4
86 487 481 482 0 0 1 31 485 1183 0 487 482 488 0 --39e-5 -79e-5 1e-5 0 -1 0 0 0
 -1 1e-5 16 487 1133 0 ?489 490 484 485 0 0 1 31 488 1182 0 490 485 491 0 --39e-
5 -79e-5 49e-5 0 -1 0 0 0 -1 1e-5 16 490 1130 0 ?492 493 487 488 0 0 1 31 491 11
81 0 493 488 494 0 +-39e-5 -79e-5 1e-5 -1 0 0 0 0 1 1e-5 16 493 1125 0 ?495 496
 490 491 0 0 1 31 494 1180 0 496 491 497 0 +-39e-5 -79e-5 1e-5 0 0 -1 -1 0 0 1e-
5 16 496 1124 0 ?498 499 493 494 0 0 1 31 497 1179 0 499 494 500 0 +-39e-5 -79e-
5 49e-5 0 0 1 1 0 0 1e-5 16 499 1123 0 ?501 439 496 497 0 0 1 31 500 1178 0 439
 497 431 0 +-39e-5 -79e-5 49e-5 -1 0 0 0 0 1 1e-5 16 439 1122 0 ?502 436 499 500
 0 0 1 30 431 1318 0 428 500 503 0 +15e-5 79e-5 497e-6 0 1 0 31 503 1322 0 430 4
31 504 0 -15e-5 79e-5 49e-5 1 0 0 0 0 -1 7e-6 16 430 1320 0 ?126 505 428 503 0 0
 1 30 504 1325 0 505 503 506 0 -15e-5 797e-6 25e-5 0 0 1 16 505 1323 0 ?245 507
 430 504 0 0 1 30 506 1331 0 507 504 298 0 +15e-5 79e-5 497e-6 0 1 0 16 507 1329
 0 ?221 296 505 506 0 0 1 31 298 1335 0 296 506 297 0 -15e-5 -79e-5 49e-5 1 0 0
 0 0 -1 7e-6 16 296 1333 0 ?508 293 507 298 0 0 1 17 508 0 509 221 120 121 510 2
96 0 0 +15 509 1324 0 212 511 0 17 221 0 509 212 508 219 512 507 0 513 +17 120 0
 509 508 212 118 514 293 0 515 +17 510 0 516 105 123 118 508 296 0 0 -15 516 158
3 0 105 517 0 17 105 0 516 518 510 103 515 364 0 519 +17 123 0 516 510 518 121 5
20 362 0 512 +17 518 0 516 123 105 100 309 307 0 520 -17 520 0 521 522 512 100 1
23 362 0 0 -17 512 0 521 520 523 121 221 507 0 508 -15 521 1581 0 523 524 0 17 5
23 0 521 512 525 219 526 280 0 0 +17 525 0 521 523 368 222 129 428 0 0 -17 526 0
 527 528 513 222 523 280 0 529 -16 280 496 0 ?523 530 270 531 0 0 1 16 530 518 0
 ?532 276 280 533 0 0 1 30 531 371 0 280 282 533 0 +15e-5 797e-6 497e-6 0 -1 0 3
0 282 372 0 270 534 531 0 +15e-5 797e-6 3e-6 0 0 1 30 533 370 0 530 531 535 0 +1
5e-5 -797e-6 497e-6 0 0 -1 30 535 465 0 276 533 286 0 -15e-5 797e-6 487e-6 -1 0
 0 16 276 463 0 ?268 273 530 535 0 0 1 30 286 470 0 273 535 536 0 +15e-5 797e-6
 13e-6 -1 0 0 30 536 487 0 285 286 537 0 +15e-5 -787e-6 3e-6 -1 0 0 16 285 485 0
 ?538 539 273 536 0 0 1 30 537 492 0 539 536 540 0 -15e-5 787e-6 3e-6 -1 0 0 16
 539 490 0 ?258 541 285 537 0 0 1 30 540 509 0 541 537 542 0 -15e-5 -787e-6 497e
-6 -1 0 0 16 541 507 0 ?513 543 539 540 0 0 1 30 542 514 0 543 540 544 0 +15e-5
 787e-6 497e-6 -1 0 0 16 543 512 0 ?528 545 541 542 0 0 1 30 544 531 0 545 542 5
46 0 +15e-5 -797e-6 487e-6 -1 0 0 16 545 529 0 ?547 548 543 544 0 0 1 30 546 536
 0 548 544 549 0 -15e-5 -797e-6 13e-6 -1 0 0 16 548 534 0 ?550 264 545 546 0 0 1
 31 549 571 0 264 546 265 0 --15e-5 787e-6 13e-6 1 0 0 0 0 -1 1e-5 16 264 539 0
 ?227 250 548 549 0 0 1 31 265 572 0 250 549 551 0 +15e-5 787e-6 13e-6 1 0 0 0 0
 -1 1e-5 31 551 573 0 263 265 552 0 --15e-5 787e-6 487e-6 1 0 0 0 0 -1 1e-5 16 2
63 547 0 ?239 553 250 551 0 0 1 31 552 574 0 553 551 554 0 +15e-5 787e-6 487e-6
 1 0 0 0 0 -1 1e-5 16 553 551 0 ?224 555 263 552 0 0 1 31 554 575 0 555 552 556
 0 --15e-5 -787e-6 13e-6 1 0 0 0 0 -1 1e-5 16 555 555 0 ?203 557 553 554 0 0 1 3
1 556 576 0 557 554 558 0 +15e-5 -787e-6 13e-6 1 0 0 0 0 -1 1e-5 16 557 559 0 ?2
36 559 555 556 0 0 1 31 558 577 0 559 556 560 0 --15e-5 -787e-6 487e-6 1 0 0 0 0
 -1 1e-5 16 559 563 0 ?215 561 557 558 0 0 1 31 560 578 0 561 558 562 0 +15e-5 -
787e-6 487e-6 1 0 0 0 0 -1 1e-5 16 561 567 0 ?212 563 559 560 0 0 1 30 562 718 0
 563 560 564 0 +4e-4 8e-4 1e-5 -101643953670516e-30 1 0 16 563 716 0 ?197 565 56
1 562 0 0 1 30 564 722 0 565 562 566 0 -4e-4 79e-5 5e-4 0 0 -1 16 565 720 0 ?194
 567 563 564 0 0 1 30 566 726 0 567 564 568 0 -4e-4 -8e-4 49e-5 -101643953670516
e-30 1 0 16 567 724 0 ?191 569 565 566 0 0 1 30 568 729 0 569 566 570 0 +4e-4 -7
9e-5 5e-4 0 0 -1 16 569 727 0 ?571 572 567 568 0 0 1 30 570 741 0 572 568 573 0
 +-4e-4 -8e-4 1e-5 1 0 0 16 572 1379 0 ?188 574 569 570 0 0 1 30 573 745 0 574 5
70 575 0 -39e-5 -8e-4 5e-4 0 0 -1 16 574 743 0 ?576 577 572 573 0 0 1 30 575 748
 0 577 573 578 0 -15e-5 -8e-4 49e-5 1 0 0 16 577 746 0 ?579 580 574 575 0 0 1 30
 578 760 0 580 575 581 0 +4e-4 -79e-5 5e-4 1 0 0 16 580 1371 0 ?182 582 577 578
 0 0 1 30 581 764 0 582 578 583 0 +39e-5 8e-4 5e-4 -101643953670516e-30 1 0 16 5
82 762 0 ?179 584 580 581 0 0 1 30 583 767 0 584 581 585 0 +15e-5 79e-5 5e-4 -1
 0 0 16 584 765 0 ?586 587 582 583 0 0 1 30 585 779 0 587 583 588 0 +-4e-4 8e-4
 1e-5 -1 0 0 16 587 777 0 ?589 590 584 585 0 0 1 30 588 783 0 590 585 591 0 +39e
-5 8e-4 5e-4 0 0 -1 16 590 781 0 ?176 592 587 588 0 0 1 30 591 786 0 592 588 593
 0 -4e-4 8e-4 49e-5 -1 0 0 16 592 1411 0 ?173 594 590 591 0 0 1 30 593 798 0 594
 591 595 0 -0 79e-5 0 -1 0 0 16 594 1395 0 ?170 596 592 593 0 0 1 30 595 802 0 5
96 593 597 0 -39e-5 3964114193150125e-35 0 -101643953670516e-30 1 0 16 596 800 0
 ?167 598 594 595 0 0 1 30 597 805 0 598 595 599 0 -0 -79e-5 0 1 0 0 16 598 803
 0 ?600 601 596 597 0 0 1 30 599 814 0 601 597 602 0 +-4e-4 8e-4 1e-5 1355252715
60688e-30 -1 0 16 601 812 0 ?161 603 598 599 0 0 1 30 602 818 0 603 599 604 0 --
4e-4 -79e-5 5e-4 0 0 -1 16 603 816 0 ?158 605 601 602 0 0 1 30 604 822 0 605 602
 606 0 --4e-4 8e-4 49e-5 135525271560688e-30 -1 0 16 605 820 0 ?155 607 603 604
 0 0 1 30 606 825 0 607 604 608 0 +-4e-4 79e-5 5e-4 0 0 -1 16 607 823 0 ?609 610
 605 606 0 0 1 30 608 837 0 610 606 611 0 --15e-5 8e-4 49e-5 -1 0 0 16 610 835 0
 ?39 612 607 608 0 0 1 30 611 841 0 612 608 613 0 --39e-5 8e-4 5e-4 0 0 -1 16 61
2 839 0 ?614 422 610 611 0 0 1 30 613 844 0 422 611 615 0 +-4e-4 8e-4 1e-5 -1 0
 0 16 422 1514 0 ?149 616 612 613 0 0 1 30 615 856 0 616 613 617 0 +-15e-5 -79e-
5 5e-4 1 0 0 16 616 854 0 ?30 618 422 615 0 0 1 30 617 860 0 618 615 619 0 +-39e
-5 -8e-4 5e-4 135525271560688e-30 -1 0 16 618 858 0 ?146 620 616 617 0 0 1 30 61
9 863 0 620 617 621 0 +-4e-4 79e-5 5e-4 -1 0 0 16 620 1530 0 ?29 622 618 619 0 0
 1 30 621 875 0 622 619 623 0 --4e-4 -8e-4 49e-5 1 0 0 16 622 1482 0 ?141 624 62
0 621 0 0 1 30 623 879 0 624 621 625 0 +-39e-5 -8e-4 5e-4 0 0 -1 16 624 877 0 ?1
38 626 622 623 0 0 1 30 625 882 0 626 623 435 0 +-4e-4 -8e-4 1e-5 1 0 0 16 626 8
80 0 ?627 432 624 625 0 0 1 30 435 894 0 432 625 433 0 -0 -79e-5 0 1 0 0 16 432
 1498 0 ?135 427 626 435 0 0 1 17 135 0 423 132 48 133 425 432 0 628 +17 425 0 6
29 51 628 46 135 432 0 630 -17 628 0 629 425 631 133 495 493 0 632 -15 629 1093
 0 425 633 0 17 631 0 629 628 51 136 627 626 0 634 -17 495 0 635 498 632 136 628
 493 0 0 +17 632 0 635 495 498 133 489 487 0 426 -15 635 1097 0 495 636 0 17 498
 0 635 632 495 159 634 496 0 489 +17 489 0 637 638 426 159 632 487 0 0 +17 426 0
 637 489 421 133 132 427 0 0 -15 637 1103 0 489 639 0 17 421 0 637 426 638 130 4
80 478 0 477 -17 638 0 637 421 489 162 161 601 0 609 -17 480 0 640 641 477 162 4
21 478 0 638 +17 477 0 640 480 641 130 419 475 0 0 +15 640 1109 0 477 642 0 17 6
41 0 640 477 480 147 164 382 0 0 -17 419 0 414 416 415 147 477 475 0 643 -17 643
 0 644 164 152 147 614 612 0 641 -15 644 1111 0 152 645 0 17 164 0 644 646 643 1
62 641 382 0 480 +17 152 0 644 643 646 150 647 473 0 486 +17 614 0 648 39 149 15
0 643 612 0 0 +15 648 180 0 39 649 0 17 39 0 648 40 614 27 36 610 0 406 +17 149
 0 648 614 40 147 416 422 0 419 +17 40 0 648 149 39 34 406 358 0 416 +17 36 0 35
 650 33 150 39 610 0 614 -15 35 1099 0 32 651 0 17 650 0 35 32 36 142 486 484 0
 483 -17 32 0 35 33 650 11 29 620 0 37 -17 486 0 652 647 483 150 650 484 0 36 +1
7 483 0 652 486 647 142 653 481 0 0 +15 652 1107 0 483 654 0 17 647 0 652 483 48
6 153 152 473 0 646 -17 653 0 655 656 657 153 483 481 0 647 -15 655 1101 0 492 6
58 0 17 656 0 655 492 653 156 155 605 0 0 -17 657 0 655 653 492 142 146 618 0 65
0 -17 492 0 655 657 656 144 659 490 0 0 +17 146 0 28 30 29 144 657 618 0 660 +15
 28 4 0 30 661 0 17 30 0 28 24 146 55 660 616 0 0 +17 29 0 28 146 24 142 32 620
 0 657 +17 660 0 662 663 349 144 30 616 0 502 -15 662 1089 0 664 665 0 17 663 0
 662 664 660 139 502 439 0 501 -17 349 0 662 660 664 55 666 347 0 30 +17 502 0 6
67 659 501 144 663 439 0 492 +15 667 1095 0 501 668 0 17 659 0 667 501 502 156 4
92 490 0 656 -17 501 0 667 502 659 139 669 499 0 0 +17 669 0 670 671 672 156 501
 499 0 659 -15 670 1091 0 634 673 0 17 671 0 670 634 669 159 158 603 0 498 -17 6
72 0 670 669 634 139 138 624 0 663 -17 634 0 670 672 671 136 498 496 0 495 -17 1
38 0 674 627 141 136 672 624 0 631 +15 674 188 0 627 675 0 17 627 0 674 54 138 4
9 631 626 0 676 +17 141 0 674 138 54 139 664 622 0 672 +17 54 0 674 141 627 52 6
77 350 0 664 +17 664 0 662 349 663 52 141 622 0 666 -17 666 0 678 78 57 52 349 3
47 0 679 -15 678 1704 0 57 680 0 17 78 0 678 681 666 76 679 383 0 682 +17 57 0 6
78 666 681 55 683 385 0 31 +17 679 0 684 677 682 52 78 383 0 0 -15 684 1702 0 68
5 686 0 17 677 0 684 389 679 49 54 350 0 0 -17 682 0 684 679 685 76 206 327 0 32
6 -17 685 0 684 682 687 204 688 689 0 0 -17 206 0 690 215 326 204 682 327 0 691
 +17 326 0 690 206 81 76 681 324 0 0 +15 690 339 0 326 692 0 17 81 0 690 326 215
 79 693 322 0 683 +17 681 0 678 57 78 79 326 324 0 0 -17 215 0 690 81 206 213 69
1 559 0 694 +17 693 0 695 696 683 213 81 322 0 0 -17 683 0 695 693 31 79 57 385
 0 681 -15 695 1700 0 392 697 0 17 31 0 695 683 392 55 24 10 0 349 -17 392 0 695
 31 698 11 699 390 0 0 +17 698 0 695 392 696 73 218 329 0 0 -17 699 0 700 701 37
 73 392 390 0 698 -15 700 1696 0 397 702 0 17 701 0 700 397 699 70 75 331 0 0 -1
7 37 0 700 699 397 11 33 38 0 392 -17 397 0 700 37 701 27 410 396 0 0 +17 410 0
 405 703 406 70 397 396 0 701 -17 703 0 405 274 410 237 72 333 0 0 -17 274 0 405
 407 703 240 272 704 0 0 -17 72 0 705 75 239 70 703 333 0 410 +15 705 1435 0 239
 706 0 17 75 0 705 218 72 73 701 331 0 699 +17 239 0 705 72 218 237 707 263 0 27
2 +17 218 0 705 239 75 216 698 329 0 707 +17 707 0 708 529 275 216 239 263 0 528
 -17 272 0 266 268 267 237 274 704 0 275 +16 704 458 0 ?272 709 471 710 0 0 1 17
 275 0 708 707 277 237 268 276 0 703 -15 708 616 0 277 711 0 17 277 0 708 275 52
9 243 224 553 0 269 -17 529 0 708 277 707 222 528 543 0 525 -17 224 0 712 129 24
5 222 277 553 0 526 +15 712 303 0 126 713 0 17 129 0 712 126 224 127 525 428 0 7
14 +17 245 0 712 224 126 243 279 505 0 268 +17 126 0 712 245 129 124 714 430 0 2
79 +17 279 0 278 715 269 124 245 505 0 374 -17 715 0 278 289 279 85 374 372 0 71
6 -17 374 0 717 714 716 124 715 372 0 0 +15 717 1577 0 374 718 0 17 714 0 717 71
9 374 127 126 430 0 368 -17 716 0 717 374 719 85 84 320 0 0 -17 719 0 717 716 71
4 82 368 366 0 522 -17 84 0 720 721 722 82 716 320 0 586 +15 720 960 0 722 723 0
 17 721 0 720 724 84 177 586 584 0 470 -17 722 0 720 84 724 85 173 592 0 715 -17
 586 0 725 102 179 82 721 584 0 719 +15 725 176 0 586 726 0 17 102 0 725 182 586
 100 522 25 0 727 +17 179 0 725 586 182 177 728 582 0 721 +17 182 0 725 179 102
 180 727 580 0 728 +17 728 0 729 730 458 180 179 582 0 731 -15 729 972 0 458 732
 0 17 730 0 729 733 728 189 449 447 0 734 -17 458 0 729 728 733 177 735 456 0 0
 +17 731 0 736 727 737 180 452 450 0 449 -15 736 970 0 727 738 0 17 727 0 736 30
9 731 100 182 580 0 518 -17 737 0 736 731 309 183 579 577 0 576 -17 452 0 739 73
4 449 183 731 450 0 737 +17 449 0 739 452 734 180 730 447 0 0 +15 739 978 0 449
 740 0 17 734 0 739 449 452 189 185 438 0 741 -17 185 0 742 743 741 183 734 438
 0 452 +17 741 0 742 185 200 189 571 569 0 0 -15 742 982 0 185 744 0 17 200 0 74
2 741 743 198 745 436 0 446 +17 571 0 746 197 191 198 741 569 0 0 +15 746 713 0
 191 747 0 17 197 0 746 194 571 195 748 563 0 749 +17 191 0 746 571 194 189 733
 567 0 730 +17 194 0 746 191 197 192 749 565 0 750 +17 733 0 729 458 730 192 191
 567 0 0 -17 749 0 751 752 750 195 194 565 0 464 -17 750 0 751 749 753 192 467 4
65 0 735 -15 751 962 0 752 754 0 17 753 0 751 750 752 171 176 590 0 724 -17 467
 0 755 470 735 171 750 465 0 0 +17 735 0 755 467 470 192 458 456 0 733 -15 755 9
66 0 467 756 0 17 470 0 755 735 467 177 724 468 0 458 +17 724 0 720 722 721 171
 470 468 0 467 -14 255 756 965 757 ?758 759 755 5 760 +0 0 758 759 23 81 1 757 2
174 761 756 762 0 0 763 764 14 758 967 763 ?738 756 765 5 766 +0 0 738 756 23 14
 759 963 767 ?756 754 768 5 769 +0 0 756 754 23 53 255 760 1040 0 756 766 769 0
 +39e-5 79e-5 49e-5 1e-5 0 0 1 1 0 0 13 23 34 0 0 0 0 0 0 9 16 14 16 1463 770 ?7
71 0 772 5 773 +771 692 771 0 23 81 1 770 2177 761 16 774 0 767 775 776 14 771 1
450 775 ?706 16 777 5 773 +706 16 706 16 23 15 772 1461 0 203 16 0 50 255 773 35
1 0 692 0 778 0 +-15e-5 -542101086242752e-34 25e-5 1 0 0 0 0 -1 14 692 336 779 ?
780 781 690 5 773 +16 706 780 781 23 81 1 779 2179 761 692 782 0 775 783 784 14
 780 90 783 ?661 692 785 5 786 -0 0 661 692 23 14 781 332 787 ?692 788 789 5 778
 -0 0 692 788 23 14 706 1437 790 ?791 771 705 5 773 +692 771 791 771 23 81 1 790
 2182 761 706 792 0 787 793 794 14 791 1352 793 ?252 706 795 5 796 -252 713 252
 706 23 81 1 793 2183 761 791 797 0 790 798 799 14 252 1339 798 ?511 791 248 5 7
96 -511 791 511 791 23 15 795 1350 0 108 791 0 50 796 346 0 713 800 801 0 +15e-5
 -542101086242752e-34 25e-5 1 0 0 0 0 -1 14 713 300 802 ?803 804 712 5 796 -791
 511 803 804 23 81 1 802 2185 761 713 805 0 798 806 807 14 803 320 806 ?271 713
 808 5 800 -0 0 271 713 23 14 804 48 809 ?713 726 810 5 811 -424 424 713 726 23
 14 511 1326 812 ?813 252 509 5 796 -713 252 813 252 23 81 1 812 2188 761 511 81
4 0 809 815 816 14 813 88 815 ?747 511 817 5 818 -675 675 747 511 23 81 1 815 21
89 761 813 819 0 812 820 821 14 747 86 820 ?822 813 746 5 823 -0 0 822 813 23 15
 817 87 0 579 813 0 50 818 93 0 813 823 786 0 +-4e-4 -8e-4 5e-4 0 1 0 0 0 1 14 6
75 189 824 ?284 649 674 5 818 -813 813 284 649 23 81 1 824 2191 761 675 825 0 82
0 826 827 14 284 594 826 ?711 675 259 5 828 +0 0 711 675 23 14 649 181 829 ?675
 424 648 5 830 -822 822 675 424 23 81 1 829 2193 761 649 831 0 826 832 833 14 42
4 152 832 ?649 661 423 5 811 -804 804 649 661 23 50 830 91 0 822 811 823 0 +-4e-
4 8e-4 5e-4 0 -1 0 0 0 -1 14 822 84 834 ?726 747 835 5 830 -649 649 726 747 23 8
1 1 834 2195 761 822 836 0 832 837 838 14 726 1 837 ?804 822 725 5 801 +661 661
 804 822 23 15 835 83 0 589 822 0 17 589 0 835 87 176 88 839 587 0 290 +17 87 0
 835 173 589 85 289 318 0 722 +17 176 0 835 589 173 174 753 590 0 839 +17 839 0
 768 840 90 174 589 587 0 752 -17 290 0 841 842 255 88 287 291 0 289 -15 841 156
9 0 290 843 0 17 842 0 841 844 290 91 90 316 0 381 -17 255 0 841 290 844 115 114
 292 0 287 -17 289 0 278 287 715 88 87 318 0 0 -17 844 0 841 255 842 112 381 379
 0 256 -17 114 0 248 233 117 112 255 292 0 844 +17 381 0 845 846 256 91 844 379
 0 0 +17 256 0 845 381 262 112 233 257 0 0 -15 845 1571 0 381 847 0 17 262 0 845
 256 848 231 849 281 0 0 +17 848 0 845 262 850 234 111 301 0 0 -17 849 0 808 538
 258 234 262 281 0 851 -16 281 474 0 ?262 270 689 534 0 0 1 16 689 524 0 ?688 28
1 709 852 0 0 1 30 534 373 0 281 852 282 0 +15e-5 -797e-6 3e-6 0 1 0 30 852 378
 0 689 853 534 0 +-15e-5 -797e-6 497e-6 0 0 -1 30 853 379 0 709 710 852 0 +-15e-
5 797e-6 497e-6 0 -1 0 16 709 502 0 ?694 689 704 853 0 0 1 30 710 380 0 704 854
 853 0 +-15e-5 797e-6 3e-6 0 0 1 30 854 381 0 471 0 710 0 +-15e-5 -797e-6 3e-6 0
 1 0 16 471 480 0 ?855 704 468 854 0 0 1 17 855 0 808 258 538 225 856 471 0 260
 +15 808 323 0 855 803 0 17 258 0 808 849 855 231 260 539 0 249 +17 538 0 808 85
5 849 228 851 285 0 856 +17 856 0 400 857 401 228 855 471 0 0 -17 260 0 259 283
 249 225 258 539 0 401 -17 401 0 400 856 399 225 66 339 0 0 -15 400 1694 0 856 8
58 0 17 66 0 777 69 227 64 401 339 0 412 +15 777 1448 0 227 771 0 17 69 0 777 24
2 66 67 412 337 0 408 +17 227 0 777 66 242 225 283 264 0 855 +17 242 0 777 227 6
9 240 407 335 0 283 +14 858 1693 859 ?702 409 400 5 860 +0 0 702 409 23 81 1 859
 2197 761 858 861 0 837 862 863 14 702 1695 862 ?864 858 700 5 865 +0 0 864 858
 23 14 409 1691 866 ?858 18 405 5 19 +0 0 858 18 23 51 255 860 1765 0 858 865 19
 0 +-153e-6 -542101086242752e-34 3e-6 0 -1 0 3e-6 0 0 -1 54 865 1766 0 702 867 8
60 0 +-153e-6 79e-5 49e-5 1 0 0 7e-6 3e-6 0 0 -1 51 19 1764 0 409 860 6 0 +-153e
-6 797e-6 25e-5 0 0 -1 3e-6 -1 0 0 54 867 1767 0 864 868 865 0 +-153e-6 -79e-5 1
e-5 1 0 0 7e-6 3e-6 0 0 -1 14 864 1697 869 ?697 702 870 5 867 +0 0 697 702 23 51
 868 1768 0 697 871 867 0 +-153e-6 0 497e-6 0 1 0 3e-6 0 0 1 14 697 1699 872 ?68
6 864 695 5 868 +0 0 686 864 23 51 871 1769 0 686 873 868 0 +-153e-6 -797e-6 25e
-5 0 0 1 3e-6 1 0 0 14 686 1701 874 ?680 697 684 5 871 +0 0 680 697 23 54 873 17
70 0 680 875 871 0 +-153e-6 -79e-5 49e-5 1 0 0 7e-6 3e-6 0 0 -1 14 680 1703 876
 ?0 686 678 5 873 +0 0 0 686 23 54 875 1642 0 843 877 873 0 +153e-6 79e-5 1e-5 1
 0 0 7e-6 3e-6 0 0 -1 14 843 1568 878 ?847 645 841 5 875 +0 0 847 645 23 51 877
 1643 0 847 879 875 0 +153e-6 0 3e-6 0 1 0 3e-6 0 0 1 14 847 1570 880 ?288 843 8
45 5 877 +0 0 288 843 23 51 879 1644 0 288 881 877 0 +153e-6 797e-6 5e-4 0 0 1 3
e-6 1 0 0 14 288 1572 882 ?883 847 278 5 879 +0 0 883 847 23 54 881 1645 0 883 8
84 879 0 +153e-6 -79e-5 1e-5 1 0 0 7e-6 3e-6 0 0 -1 14 883 1574 885 ?718 288 886
 5 881 +0 0 718 288 23 54 884 1646 0 718 887 881 0 +153e-6 79e-5 49e-5 1 0 0 7e-
6 3e-6 0 0 -1 14 718 1576 888 ?889 883 717 5 884 +0 0 889 883 23 51 887 1647 0 8
89 890 884 0 +153e-6 -797e-6 5e-4 0 0 -1 3e-6 -1 0 0 14 889 1578 891 ?524 718 89
2 5 887 +0 0 524 718 23 51 890 1648 0 524 893 887 0 +153e-6 -542101086242752e-34
 497e-6 0 -1 0 3e-6 0 0 -1 14 524 1580 894 ?517 889 521 5 890 +0 0 517 889 23 54
 893 1649 0 517 895 890 0 +153e-6 -79e-5 49e-5 1 0 0 7e-6 3e-6 0 0 -1 14 517 158
2 896 ?18 524 516 5 893 +0 0 18 524 23 51 895 1166 0 665 897 893 0 +0 -79e-5 49e
-5 -1 0 0 1e-5 0 0 1 14 665 1088 898 ?673 744 662 5 895 +0 0 673 744 23 51 897 1
167 0 673 899 895 0 +-39e-5 -79e-5 5e-4 0 0 -1 1e-5 -1 0 0 14 673 1090 900 ?633
 665 670 5 897 +0 0 633 665 23 51 899 1168 0 633 901 897 0 +-4e-4 -79e-5 1e-5 1
 0 0 1e-5 0 0 -1 14 633 1092 902 ?668 673 629 5 899 +0 0 668 673 23 53 901 1169
 0 668 903 899 0 +-39e-5 -79e-5 49e-5 1e-5 0 0 1 1 0 0 14 668 1094 904 ?636 633
 667 5 901 +0 0 636 633 23 53 903 1170 0 636 905 901 0 +-39e-5 -79e-5 1e-5 1e-5
 0 0 1 1 0 0 14 636 1096 906 ?651 668 635 5 903 +0 0 651 668 23 51 905 1171 0 65
1 907 903 0 +0 79e-5 49e-5 1 0 0 1e-5 0 0 -1 14 651 1098 908 ?658 636 35 5 905 +
0 0 658 636 23 51 907 1172 0 658 909 905 0 +-39e-5 -528548559086684e-34 49e-5 -1
35525271560688e-30 1 0 1e-5 -1 -135525271560688e-30 0 14 658 1100 910 ?639 651 6
55 5 907 +0 0 639 651 23 51 909 1173 0 639 911 907 0 +-39e-5 8e-4 1e-5 135525271
560688e-30 -1 0 1e-5 1 135525271560688e-30 0 14 639 1102 912 ?418 658 637 5 909
 +0 0 418 658 23 51 911 1174 0 418 913 909 0 +-4e-4 79e-5 1e-5 -1 0 0 1e-5 0 0 1
 14 418 1104 914 ?654 639 414 5 911 +0 0 654 639 23 53 913 1175 0 654 915 911 0
 +-39e-5 79e-5 49e-5 1e-5 0 0 1 1 0 0 14 654 1106 916 ?642 418 652 5 913 +0 0 64
2 418 23 53 915 1176 0 642 917 913 0 +-39e-5 79e-5 1e-5 1e-5 0 0 1 1 0 0 14 642
 1108 918 ?645 654 640 5 915 +0 0 645 654 23 51 917 1177 0 645 919 915 0 +-39e-5
 79e-5 5e-4 0 0 -1 1e-5 -1 0 0 14 645 1110 920 ?843 642 644 5 917 +0 0 843 642 2
3 51 919 1037 0 723 921 917 0 +0 79e-5 49e-5 1 0 0 1e-5 0 0 -1 14 723 959 922 ?7
54 923 720 5 919 +0 0 754 923 23 51 921 1038 0 754 769 919 0 +39e-5 79e-5 5e-4 0
 0 -1 1e-5 -1 0 0 14 754 961 924 ?759 723 751 5 921 +0 0 759 723 23 51 769 1039
 0 759 760 921 0 +-4e-4 79e-5 1e-5 -1 0 0 1e-5 0 0 1 81 1 924 2225 761 754 925 0
 922 926 927 80 255 1 761 928 929 9000 1 1 1 1 1 1 1 1 0 FFFFTFTFFFFFFF1 81 1 92
5 2001 930 754 0 924 931 932 933 81 1 922 2224 761 723 931 0 920 924 934 81 1 92
6 2226 761 738 935 0 924 936 937 82 255 1 927 -120519689 14 738 969 926 ?732 758
 736 5 938 +0 0 732 758 23 81 1 935 2005 930 738 0 926 939 940 941 81 1 936 2227
 761 942 943 0 926 944 945 82 1 937 -124320776 14 942 975 936 ?740 946 947 5 948
 +0 0 740 946 23 81 1 943 2008 930 942 0 936 949 950 951 81 1 944 2228 761 18 95
2 0 936 953 954 82 1 945 -127663112 14 18 1689 944 ?409 517 411 5 6 +0 0 409 517
 23 81 1 952 2032 930 18 955 944 956 957 958 81 1 953 2229 761 744 959 0 944 960
 961 82 1 954 -46857224 14 744 981 953 ?665 962 742 5 963 +0 0 665 962 23 81 1 9
59 2011 930 744 0 953 964 965 966 81 1 960 2230 761 962 964 0 953 967 968 82 1 9
61 -130939913 14 962 979 960 ?744 740 969 5 970 +0 0 744 740 23 81 1 964 2010 93
0 962 0 960 950 959 971 81 1 967 2231 761 740 950 0 960 972 973 82 1 968 -129367
049 14 740 977 967 ?962 942 739 5 974 +0 0 962 942 23 81 1 950 2009 930 740 0 96
7 943 964 975 81 1 972 2232 761 946 949 0 967 976 977 82 1 973 -128515081 14 946
 973 972 ?942 732 978 5 979 +0 0 942 732 23 81 1 949 2007 930 946 0 972 940 943
 980 81 1 976 2233 761 732 940 0 972 981 982 82 1 977 -126549001 14 732 971 976
 ?946 738 729 5 983 +0 0 946 738 23 81 1 940 2006 930 732 0 976 935 949 984 81 1
 981 2234 761 923 985 0 976 986 987 82 1 982 -125434889 14 923 657 981 ?723 988
 989 5 990 +0 0 723 988 23 81 1 985 1999 930 923 0 981 991 931 992 81 1 986 2235
 761 988 991 0 981 993 994 82 1 987 -155253768 14 988 636 986 ?923 711 995 5 996
 +0 0 923 711 23 81 1 991 1998 930 988 0 986 997 985 998 81 1 993 2236 761 711 9
97 0 986 999 1000 82 1 994 -157219848 14 711 615 993 ?988 284 708 5 1001 +0 0 98
8 284 23 81 1 997 1997 930 711 0 993 1002 991 1003 81 1 999 2237 761 788 1004 0
 993 1005 1006 82 1 1000 -159185928 14 788 328 999 ?781 271 527 5 1007 -0 0 781
 271 23 81 1 1004 1988 930 788 0 999 1008 1009 1010 81 1 1005 2238 761 271 1008
 0 999 1011 1012 82 1 1006 -212335624 14 271 324 1005 ?788 803 266 5 1013 -0 0 7
88 803 23 81 1 1008 1987 930 271 0 1005 1014 1004 1015 81 1 1011 2239 761 661 10
16 0 1005 0 1017 82 1 1012 -212073480 14 661 173 1011 ?424 780 28 5 801 +726 726
 424 780 23 81 1 1016 1992 930 661 0 1011 1018 1019 1020 82 1 1017 -169475080 80
 1 930 0 1021 8001 0 0 0 0 3 5 0 0 0 FFFFTFTFFFFFFF2 81 1 1018 1991 930 780 0 78
3 782 1016 1022 81 1 1019 1993 930 424 0 832 1016 831 1023 83 255 3 1020 .925490
196078431 .925490196078431 .925490196078431 81 1 832 2194 761 424 1019 0 829 834
 1024 81 1 831 1994 930 649 0 829 1019 825 1025 83 3 1023 .925490196078431 .9254
90196078431 .925490196078431 81 1 825 1995 930 675 0 824 831 1002 1026 83 3 1025
 .925490196078431 .925490196078431 .925490196078431 81 1 1002 1996 930 284 0 826
 825 997 1027 83 3 1026 .925490196078431 .925490196078431 .925490196078431 81 1
 826 2192 761 284 1002 0 824 829 1028 83 3 1027 .513725490196078 .45490196078431
4 .384313725490196 82 1 1028 -161152008 82 1 1024 -175176712 81 1 783 2180 761 7
80 1018 0 779 787 1029 81 1 782 1990 930 692 0 779 1009 1018 1030 83 3 1022 .925
490196078431 .925490196078431 .925490196078431 81 1 1009 1989 930 781 0 787 1004
 782 1031 83 3 1030 .925490196078431 .925490196078431 .925490196078431 81 1 787
 2181 761 781 1009 0 783 790 1032 83 3 1031 .513725490196078 .454901960784314 .3
84313725490196 82 1 1032 -212597768 82 1 1029 -810875913 79 255 15 1021 SDL/TYSA
_COLOUR50 801 3 0 726 796 811 0 +0 0 5e-4 0 0 1 1 0 0 50 811 70 0 804 801 830 0
 +0 0 0 0 0 1 1 0 0 81 1 1014 1986 930 803 0 806 805 1008 1033 83 3 1015 .513725
490196078 .454901960784314 .384313725490196 81 1 806 2186 761 803 1014 0 802 809
 1034 81 1 805 1985 930 713 0 802 1035 1014 1036 83 3 1033 .513725490196078 .454
901960784314 .384313725490196 81 1 1035 1984 930 804 0 809 1037 805 1038 83 3 10
36 .925490196078431 .925490196078431 .925490196078431 81 1 809 2187 761 804 1035
 0 806 812 1039 81 1 1037 1983 930 726 0 837 836 1035 1040 83 3 1038 .9254901960
78431 .925490196078431 .925490196078431 81 1 837 2196 761 726 1037 0 834 859 104
1 81 1 836 1982 930 822 0 834 1042 1037 1043 83 3 1040 .925490196078431 .9254901
96078431 .925490196078431 81 1 1042 1981 930 747 0 820 819 836 1044 83 3 1043 .9
25490196078431 .925490196078431 .925490196078431 81 1 820 2190 761 747 1042 0 81
5 824 1045 81 1 819 1980 930 813 0 815 814 1042 1046 83 3 1044 .925490196078431
 .925490196078431 .925490196078431 81 1 814 1979 930 511 0 812 1047 819 1048 83
 3 1046 .925490196078431 .925490196078431 .925490196078431 81 1 1047 1978 930 25
2 0 798 797 814 1049 83 3 1048 .925490196078431 .925490196078431 .92549019607843
1 81 1 798 2184 761 252 1047 0 793 802 1050 81 1 797 1977 930 791 0 793 792 1047
 1051 83 3 1049 .925490196078431 .925490196078431 .925490196078431 81 1 792 1976
 930 706 0 790 1052 797 1053 83 3 1051 .925490196078431 .925490196078431 .925490
196078431 81 1 1052 1975 930 771 0 775 774 792 1054 83 3 1053 .925490196078431 .
925490196078431 .925490196078431 81 1 775 2178 761 771 1052 0 770 779 1055 81 1
 774 1974 930 16 0 770 0 1052 1056 83 3 1054 .925490196078431 .925490196078431 .
925490196078431 83 3 1056 .925490196078431 .925490196078431 .925490196078431 82
 1 1055 -32832520 82 1 1050 -43645960 82 1 1045 -811400201 82 1 1041 -818215944
 82 1 1039 -812579848 82 1 1034 -211811336 50 1013 348 0 271 1007 800 0 +15e-5 7
97e-6 3e-6 0 -1 0 0 0 -1 50 1007 349 0 788 778 1013 0 +15e-5 797e-6 497e-6 0 0 -
1 -1 0 0 50 800 347 0 803 1013 796 0 +15e-5 -797e-6 3e-6 0 0 1 1 0 0 50 778 350
 0 781 773 1007 0 +15e-5 -797e-6 497e-6 0 1 0 0 0 1 83 3 1010 .513725490196078 .
454901960784314 .384313725490196 15 527 331 0 526 788 0 83 3 1003 .5137254901960
78 .454901960784314 .384313725490196 51 1001 627 0 711 828 996 0 +15e-5 787e-6 4
87e-6 -1 0 0 1e-5 0 0 1 51 828 606 0 284 786 1001 0 +15e-5 787e-6 13e-6 -1 0 0 1
e-5 0 0 1 51 996 648 0 988 1001 990 0 +15e-5 -787e-6 13e-6 -1 0 0 1e-5 0 0 1 51
 990 669 0 923 996 963 0 +15e-5 -787e-6 487e-6 -1 0 0 1e-5 0 0 1 51 963 1048 0 7
44 990 970 0 +39e-5 -79e-5 5e-4 0 0 -1 1e-5 -1 0 0 53 970 1047 0 962 963 974 0 +
39e-5 -79e-5 1e-5 1e-5 0 0 1 1 0 0 53 974 1046 0 740 970 948 0 +39e-5 -79e-5 49e
-5 1e-5 0 0 1 1 0 0 51 948 1045 0 942 974 979 0 +-4e-4 -79e-5 1e-5 1 0 0 1e-5 0
 0 -1 51 979 1044 0 946 948 983 0 +39e-5 8e-4 1e-5 -101643953670516e-30 1 0 1e-5
 -1 -101643953670516e-30 0 51 983 1043 0 732 979 938 0 +39e-5 3964114193150125e-
35 49e-5 101643953670516e-30 -1 0 1e-5 1 101643953670516e-30 0 51 938 1042 0 738
 983 766 0 +0 -79e-5 49e-5 -1 0 0 1e-5 0 0 1 53 766 1041 0 758 938 760 0 +39e-5
 79e-5 1e-5 1e-5 0 0 1 1 0 0 50 786 94 0 780 818 828 0 +-4e-4 8e-4 5e-4 1 135525
271560688e-30 0 -135525271560688e-30 1 0 83 3 998 .513725490196078 .454901960784
314 .384313725490196 15 995 637 0 1057 988 0 17 1057 0 995 1058 851 207 236 557
 0 532 -17 1058 0 995 1059 1057 201 550 548 0 687 -17 851 0 995 1057 1059 234 53
8 285 0 848 -17 236 0 795 111 209 234 1057 557 0 849 +17 532 0 892 1060 514 207
 1061 530 0 0 +15 892 1579 0 371 889 0 17 1060 0 892 371 532 106 209 305 0 0 -17
 514 0 892 532 515 210 120 293 0 0 -17 1061 0 789 547 550 210 532 530 0 1062 -15
 789 335 0 688 781 0 17 547 0 789 688 1061 204 1062 545 0 685 +17 550 0 789 1061
 688 207 1058 548 0 1057 +17 1062 0 989 1063 691 210 547 545 0 514 -15 989 658 0
 1063 923 0 17 1063 0 989 1064 1062 219 212 561 0 523 -17 691 0 989 1062 1064 20
4 215 559 0 547 -17 1064 0 989 691 1063 213 513 541 0 693 -17 513 0 527 526 694
 219 1064 541 0 1063 +17 694 0 527 513 528 213 696 709 0 1064 +17 528 0 527 694
 526 216 529 543 0 696 +17 696 0 695 698 693 216 694 709 0 0 -17 212 0 509 120 2
21 210 1063 561 0 1061 +17 688 0 789 550 547 201 685 689 0 1058 +17 515 0 892 51
4 519 118 105 364 0 510 -17 519 0 892 515 371 103 99 310 0 309 -17 371 0 892 519
 1060 97 1065 369 0 0 +17 99 0 817 188 579 97 519 310 0 1066 +17 309 0 736 737 7
27 103 518 307 0 579 +17 579 0 817 99 576 103 737 577 0 0 +17 576 0 817 579 188
 183 743 574 0 0 +17 188 0 817 576 99 186 1066 572 0 1067 +17 743 0 742 200 185
 186 576 574 0 745 -17 745 0 969 443 446 186 200 436 0 0 -15 969 980 0 443 962 0
 17 443 0 969 446 745 165 1067 441 0 0 +17 446 0 969 745 443 198 1068 444 0 748
 +17 1068 0 978 1069 748 165 446 444 0 443 -17 748 0 978 1068 455 198 197 563 0
 571 -15 978 974 0 455 946 0 17 455 0 978 748 1069 195 1070 453 0 0 +17 1069 0 9
78 455 1068 168 167 596 0 0 -17 1070 0 765 461 464 168 455 453 0 1069 -15 765 96
8 0 461 758 0 17 461 0 765 464 1070 174 840 459 0 0 +17 464 0 765 1070 461 195 7
52 462 0 455 +17 752 0 751 753 749 174 464 462 0 461 -17 840 0 768 1071 839 168
 461 459 0 1070 -15 768 964 0 1071 759 0 17 1071 0 768 90 840 91 170 594 0 842 -
17 90 0 768 839 1071 88 842 316 0 589 +17 170 0 810 167 93 168 1071 594 0 840 +1
5 810 49 0 600 804 0 17 167 0 810 600 170 165 1069 596 0 1072 +17 93 0 810 170 6
00 91 846 314 0 1071 +17 600 0 810 93 167 94 1072 598 0 846 +17 846 0 845 850 38
1 94 93 314 0 377 -17 850 0 845 848 846 109 377 375 0 1073 -17 377 0 886 1074 10
73 94 850 375 0 0 +15 886 1575 0 377 883 0 17 1074 0 886 1065 377 97 96 312 0 37
1 -17 1073 0 886 377 1065 109 108 303 0 0 -17 1065 0 886 1073 1074 106 371 369 0
 1060 -17 108 0 795 209 111 106 1073 303 0 1065 +17 209 0 795 236 108 207 1060 3
05 0 550 +17 111 0 795 108 236 109 848 301 0 850 +17 96 0 947 1072 1066 94 1074
 312 0 600 +15 947 976 0 1066 942 0 17 1072 0 947 1067 96 165 600 598 0 1068 -17
 1066 0 947 96 1067 97 188 572 0 1074 -17 1067 0 947 1066 1072 186 443 441 0 743
 -17 1059 0 995 851 1058 228 203 555 0 538 -17 203 0 772 60 230 201 1059 555 0 6
88 +17 60 0 772 63 203 58 687 345 0 1075 +17 230 0 772 203 63 228 857 341 0 1059
 +17 63 0 772 230 60 61 1075 343 0 857 +17 857 0 400 630 856 61 230 341 0 395 -1
7 630 0 400 402 857 46 395 393 0 1076 -17 395 0 870 1075 1076 61 630 393 0 0 +15
 870 1698 0 395 864 0 17 1075 0 870 676 395 58 63 343 0 389 -17 1076 0 870 395 6
76 46 51 352 0 0 -17 676 0 870 1076 1075 49 389 387 0 677 -17 51 0 629 631 425 4
9 1076 352 0 627 +17 389 0 684 687 677 58 676 387 0 0 +17 687 0 684 685 389 201
 60 345 0 0 -17 402 0 400 399 630 41 48 354 0 0 -81 1 931 2000 930 723 0 922 985
 925 1077 83 3 992 .513725490196078 .454901960784314 .384313725490196 83 3 1077
 .925490196078431 .925490196078431 .925490196078431 83 3 984 .925490196078431 .9
25490196078431 .925490196078431 83 3 980 .925490196078431 .925490196078431 .9254
90196078431 83 3 975 .925490196078431 .925490196078431 .925490196078431 83 3 971
 .925490196078431 .925490196078431 .925490196078431 81 1 965 2012 930 665 0 898
 959 1078 1079 83 3 966 .925490196078431 .925490196078431 .925490196078431 81 1
 898 2212 761 665 965 0 896 900 1080 81 1 1078 2013 930 673 0 900 965 1081 1082
 83 3 1079 .925490196078431 .925490196078431 .925490196078431 81 1 900 2213 761
 673 1078 0 898 902 1083 81 1 1081 2014 930 633 0 902 1078 1084 1085 83 3 1082 .
925490196078431 .925490196078431 .925490196078431 81 1 902 2214 761 633 1081 0 9
00 904 1086 81 1 1084 2015 930 668 0 904 1081 1087 1088 83 3 1085 .9254901960784
31 .925490196078431 .925490196078431 81 1 904 2215 761 668 1084 0 902 906 1089 8
1 1 1087 2016 930 636 0 906 1084 1090 1091 83 3 1088 .925490196078431 .925490196
078431 .925490196078431 81 1 906 2216 761 636 1087 0 904 908 1092 81 1 1090 2017
 930 651 0 908 1087 1093 1094 83 3 1091 .925490196078431 .925490196078431 .92549
0196078431 81 1 908 2217 761 651 1090 0 906 910 1095 81 1 1093 2018 930 658 0 91
0 1090 1096 1097 83 3 1094 .925490196078431 .925490196078431 .925490196078431 81
 1 910 2218 761 658 1093 0 908 912 1098 81 1 1096 2019 930 639 0 912 1093 1099 1
100 83 3 1097 .925490196078431 .925490196078431 .925490196078431 81 1 912 2219 7
61 639 1096 0 910 914 1101 81 1 1099 2020 930 418 0 914 1096 1102 1103 83 3 1100
 .925490196078431 .925490196078431 .925490196078431 81 1 914 2220 761 418 1099 0
 912 916 1104 81 1 1102 2021 930 654 0 916 1099 1105 1106 83 3 1103 .92549019607
8431 .925490196078431 .925490196078431 81 1 916 2221 761 654 1102 0 914 918 1107
 81 1 1105 2022 930 642 0 918 1102 1108 1109 83 3 1106 .925490196078431 .9254901
96078431 .925490196078431 81 1 918 2222 761 642 1105 0 916 920 1110 81 1 1108 20
23 930 645 0 920 1105 1111 1112 83 3 1109 .925490196078431 .925490196078431 .925
490196078431 81 1 920 2223 761 645 1108 0 918 922 1113 81 1 1111 2024 930 843 11
14 878 1108 1115 1116 83 3 1112 .925490196078431 .925490196078431 .9254901960784
31 81 1 1114 1823 1117 843 0 1111 1118 1119 1120 81 1 878 2204 761 843 1111 0 87
6 880 1121 81 1 1115 2025 930 847 0 880 1111 1122 1123 83 3 1116 .92549019607843
1 .925490196078431 .925490196078431 81 1 880 2205 761 847 1115 0 878 882 1124 81
 1 1122 2026 930 288 0 882 1115 1125 1126 83 3 1123 .925490196078431 .9254901960
78431 .925490196078431 81 1 882 2206 761 288 1122 0 880 885 1127 81 1 1125 2027
 930 883 1118 885 1122 1128 1129 83 3 1126 .925490196078431 .925490196078431 .92
5490196078431 81 1 1118 1822 1117 883 0 1125 1130 1114 1131 81 1 885 2207 761 88
3 1125 0 882 888 1132 81 1 1128 2028 930 718 1119 888 1125 1133 1134 83 3 1129 .
925490196078431 .925490196078431 .925490196078431 81 1 1119 1824 1117 718 0 1128
 1114 1135 1136 81 1 888 2208 761 718 1128 0 885 891 1137 81 1 1133 2029 930 889
 0 891 1128 1138 1139 83 3 1134 .925490196078431 .925490196078431 .9254901960784
31 81 1 891 2209 761 889 1133 0 888 894 1140 81 1 1138 2030 930 524 0 894 1133 9
56 1141 83 3 1139 .925490196078431 .925490196078431 .925490196078431 81 1 894 22
10 761 524 1138 0 891 896 1142 81 1 956 2031 930 517 1130 896 1138 952 1143 83 3
 1141 .925490196078431 .925490196078431 .925490196078431 81 1 1130 1821 1117 517
 0 956 0 1118 1144 81 1 896 2211 761 517 956 0 894 898 1145 83 3 1143 .925490196
078431 .925490196078431 .925490196078431 82 1 1145 -69925896 80 1 1117 1146 1147
 9000 0 0 0 0 3 5 0 0 0 FFFFTFFFFFFFFF1 82 1 1144 1 79 18 1147 FILLET_CORNER_FAC
E82 1 1142 -68353032 82 1 1140 -66518024 82 1 1137 -64748552 81 1 1135 1825 1117
 680 0 1148 1119 1149 1150 82 1 1136 1 81 1 1148 2039 930 680 1135 876 1151 0 11
52 81 1 1149 1826 1117 864 0 1153 1135 955 1154 82 1 1150 1 81 1 1153 2036 930 8
64 1149 869 1155 1156 1157 81 1 955 1827 1117 18 0 952 1149 1158 1159 82 1 1154
 1 81 1 1158 1828 1117 702 0 1155 955 0 1160 82 1 1159 1 81 1 1155 2035 930 702
 1158 862 861 1153 1161 82 1 1160 1 81 1 862 2198 761 702 1155 0 859 866 1162 81
 1 861 2034 930 858 0 859 957 1155 1163 83 3 1161 .925490196078431 .925490196078
431 .925490196078431 81 1 957 2033 930 409 0 866 952 861 1164 83 3 1163 .9254901
96078431 .925490196078431 .925490196078431 81 1 866 2199 761 409 957 0 862 869 1
165 83 3 1164 .925490196078431 .925490196078431 .925490196078431 81 1 869 2200 7
61 864 1153 0 866 872 1166 82 1 1165 -48626696 81 1 872 2201 761 697 1156 0 869
 874 1167 82 1 1166 -52624392 81 1 1156 2037 930 697 0 872 1153 1151 1168 81 1 8
74 2202 761 686 1151 0 872 876 1169 82 1 1167 -54393864 81 1 1151 2038 930 686 0
 874 1156 1148 1170 81 1 876 2203 761 680 1148 0 874 878 1171 82 1 1169 -5622887
2 82 1 1171 -57801736 83 3 1170 .925490196078431 .925490196078431 .9254901960784
31 83 3 1168 .925490196078431 .925490196078431 .925490196078431 82 1 1162 -51510
280 83 3 1157 .925490196078431 .925490196078431 .925490196078431 83 3 1152 .9254
90196078431 .925490196078431 .925490196078431 82 1 1132 -63634440 82 1 1131 1 82
 1 1127 -62520328 82 1 1124 -60750856 82 1 1121 -58981384 82 1 1120 1 82 1 1113
 -118291465 82 1 1110 -116718601 82 1 1107 -115866633 82 1 1104 -115014664 82 1
 1101 -113900553 82 1 1098 -112786441 82 1 1095 -111672328 82 1 1092 -110623753
 82 1 1089 -109837321 82 1 1086 -108985352 82 1 1083 -107871241 82 1 1080 -10747
8024 83 3 958 .925490196078431 .925490196078431 .925490196078431 83 3 951 .92549
0196078431 .925490196078431 .925490196078431 81 1 939 2004 930 758 0 763 762 935
 1172 83 3 941 .925490196078431 .925490196078431 .925490196078431 81 1 763 2175
 761 758 939 0 757 767 1173 81 1 762 2003 930 756 0 757 932 939 1174 83 3 1172 .
925490196078431 .925490196078431 .925490196078431 81 1 932 2002 930 759 0 767 92
5 762 1175 83 3 1174 .925490196078431 .925490196078431 .925490196078431 81 1 767
 2176 761 759 932 0 763 770 1176 83 3 1175 .925490196078431 .925490196078431 .92
5490196078431 82 1 1176 -121633800 82 1 1173 -123272201 82 1 934 -120126472 83 3
 933 .925490196078431 .925490196078431 .925490196078431 79 14 929 SWEntUnchanged
82 1 863 -50396168 17 173 0 835 176 87 171 722 592 0 753 +82 1 838 -811662344 50
 823 92 0 747 830 818 0 +4e-4 8e-4 5e-4 -1 -101643953670516e-30 0 10164395367051
6e-30 -1 0 82 1 833 -168688648 82 1 827 -167902216 82 1 821 -811138056 82 1 816
 -44891144 82 1 807 -194247688 82 1 799 -42400776 82 1 794 -34077704 15 785 809
 0 155 780 0 17 155 0 785 609 158 153 656 605 0 653 +17 609 0 785 161 155 162 64
6 607 0 0 +17 158 0 785 155 161 156 671 603 0 669 +17 161 0 785 158 609 159 638
 601 0 671 +17 646 0 644 152 164 153 609 607 0 0 -82 1 784 -185269256 82 1 776 -
31587336 82 1 764 -122485769 17 522 0 521 368 520 82 102 25 0 0 -17 368 0 521 52
5 522 127 719 366 0 0 +19 17 100 0 1 0 9 5 S0 74 4 CI16 index_map_offset0 0 1 dC
CZ20 15 9 0 0 1177 1178 1011 1158 1179 1180 13 1148 2 0 0 0 0 0 0 0 0 0 0 0 81 2
 1177 124 1181 1 0 1178 0 0 0 1182 81 2 1178 128 1183 1 1177 1179 0 0 0 1184 81
 1 1179 1893 1185 1 1178 1180 0 0 1186 81 2 1180 1969 1187 1 1179 13 0 0 0 1188
 81 2 13 1972 1189 1 1180 2 0 0 0 0 80 2 1189 1190 1191 9000 0 0 0 0 3 5 0 0 0 F
FTFFFFFFFFFFF9 1 79 16 1191 BODY_RECIPE_200180 2 1187 1192 1193 9000 0 0 0 0 3 5
 0 0 0 FFTFFFFFFFFFFF9 1 82 1 1188 1 79 24 1193 BODY_IN_LIGHTWEIGHT_PERM80 1 118
5 1194 1195 9000 1 1 1 1 1 1 1 1 0 FFTFFFFFFFFFFF1 82 1 1186 10800953 79 10 1195
 BODY_MATCH80 2 1183 1196 1197 9000 0 0 0 0 3 5 0 0 0 FFTFFFFFFFFFFF9 1 82 1 118
4 460 79 30 1197 LAST_BODY_MODIFYING_FEATURE_ID80 2 1181 1198 1199 9000 0 0 0 0
 3 5 0 0 0 FFTFFFFFFFFFFT9 1 82 1 1182 864 79 19 1199 ENT_TIME_STAMP_200180 2 12
 1200 1201 9000 0 0 0 0 3 5 0 0 0 FFTFFFFFFFFFFF9 1 82 1 14 115 79 12 1201 ATOM_
ID_20011 0 
