 PTC IGES file: do41-h_p15_d2-5_l5.igs                                  S      1
1H,,1H;,18HDO41-H_P15_D2-5_L5,22Hdo41-h_p15_d2-5_l5.igs,                G      1
49HPro/ENGINEER by Parametric Technology Corporation,7H2004440,32,38,7, G      2
38,15,18HDO41-H_P15_D2-5_L5,1.,2,2HMM,32768,0.5,13H190201.184849,       G      3
0.00170911,17.0918,6HDragos,7HUnknown,10,0,13H190201.184849;            G      4
     314       1       1       1       0       0       0       001000200D      1
     314       0       4       1       0                   COLOR       1D      2
     314       2       1       1       0       0       0       001000200D      3
     314       0       1       1       0                   COLOR       2D      4
     314       3       1       1       0       0       0       001000200D      5
     314       0       1       1       0                   COLOR       3D      6
     314       4       1       1       0       0       0       001000200D      7
     314       0       1       1       0                   COLOR       4D      8
     314       5       1       1       0       0       0       001000200D      9
     314       0       1       1       0                   COLOR       5D     10
     314       6       1       1       0       0       0       001000200D     11
     314       0       8       1       0                   COLOR       6D     12
     314       7       1       1       0       0       0       001000200D     13
     314       0       8       1       0                   COLOR       7D     14
     314       8       1       1       0       0       0       001000200D     15
     314       0       5       1       0                   COLOR       8D     16
     314       9       1       1       0       0       0       001000200D     17
     314       0       8       1       0                   COLOR       9D     18
     124      10       1       1       0       0       0       001000000D     19
     124       0       0       1       0                   XFORM       1D     20
     100      11       1       1       0       0      19       001010000D     21
     100       0      -3       1       0                     ARC       1D     22
     124      12       1       1       0       0       0       001000000D     23
     124       0       0       1       0                   XFORM       2D     24
     100      13       1       1       0       0      23       001010000D     25
     100       0      -3       1       0                     ARC       2D     26
     124      14       1       1       0       0       0       001000000D     27
     124       0       0       1       0                   XFORM       3D     28
     100      15       1       1       0       0      27       001010000D     29
     100       0      -3       1       0                     ARC       3D     30
     124      16       1       1       0       0       0       001000000D     31
     124       0       0       1       0                   XFORM       4D     32
     100      17       1       1       0       0      31       001010000D     33
     100       0      -3       1       0                     ARC       4D     34
     110      18       1       1       0       0       0       001010000D     35
     110       0      -3       1       0                    LINE       1D     36
     124      19       1       1       0       0       0       001000000D     37
     124       0       0       1       0                   XFORM       5D     38
     100      20       1       1       0       0      37       001010000D     39
     100       0      -3       1       0                     ARC       5D     40
     110      21       1       1       0       0       0       001010000D     41
     110       0      -3       1       0                    LINE       2D     42
     124      22       1       1       0       0       0       001000000D     43
     124       0       0       1       0                   XFORM       6D     44
     100      23       1       1       0       0      43       001010000D     45
     100       0      -3       1       0                     ARC       6D     46
     124      24       1       1       0       0       0       001000000D     47
     124       0       0       1       0                   XFORM       7D     48
     100      25       1       1       0       0      47       001010000D     49
     100       0      -3       1       0                     ARC       7D     50
     110      26       1       1       0       0       0       001010000D     51
     110       0      -3       1       0                    LINE       3D     52
     110      27       1       1       0       0       0       001010000D     53
     110       0      -3       1       0                    LINE       4D     54
     124      28       1       1       0       0       0       001000000D     55
     124       0       0       1       0                   XFORM       8D     56
     100      29       1       1       0       0      55       001010000D     57
     100       0      -3       1       0                     ARC       8D     58
     124      30       1       1       0       0       0       001000000D     59
     124       0       0       1       0                   XFORM       9D     60
     100      31       1       1       0       0      59       001010000D     61
     100       0      -3       1       0                     ARC       9D     62
     124      32       1       1       0       0       0       001000000D     63
     124       0       0       1       0                   XFORM      10D     64
     100      33       1       1       0       0      63       001010000D     65
     100       0      -3       1       0                     ARC      10D     66
     110      34       1       1       0       0       0       001010000D     67
     110       0      -3       1       0                    LINE       5D     68
     124      35       1       1       0       0       0       001000000D     69
     124       0       0       1       0                   XFORM      11D     70
     100      36       1       1       0       0      69       001010000D     71
     100       0      -3       1       0                     ARC      11D     72
     110      37       1       1       0       0       0       001010000D     73
     110       0      -3       1       0                    LINE       6D     74
     124      38       1       1       0       0       0       001000000D     75
     124       0       0       1       0                   XFORM      12D     76
     100      39       1       1       0       0      75       001010000D     77
     100       0      -3       1       0                     ARC      12D     78
     124      40       1       1       0       0       0       001000000D     79
     124       0       0       1       0                   XFORM      13D     80
     100      41       1       1       0       0      79       001010000D     81
     100       0      -3       1       0                     ARC      13D     82
     124      42       1       1       0       0       0       001000000D     83
     124       0       0       1       0                   XFORM      14D     84
     100      43       1       1       0       0      83       001010000D     85
     100       0      -3       1       0                     ARC      14D     86
     124      44       1       1       0       0       0       001000000D     87
     124       0       0       1       0                   XFORM      15D     88
     100      45       1       1       0       0      87       001010000D     89
     100       0      -3       1       0                     ARC      15D     90
     110      46       1       1       0       0       0       001010000D     91
     110       0      -3       1       0                    LINE       7D     92
     110      47       1       1       0       0       0       001010000D     93
     110       0      -3       1       0                    LINE       8D     94
     124      48       1       1       0       0       0       001000000D     95
     124       0       0       2       0                   XFORM      16D     96
     100      50       1       1       0       0      95       001010000D     97
     100       0      -3       1       0                     ARC      16D     98
     124      51       1       1       0       0       0       001000000D     99
     124       0       0       1       0                   XFORM      17D    100
     100      52       1       1       0       0      99       001010000D    101
     100       0      -3       1       0                     ARC      17D    102
     124      53       1       1       0       0       0       001000000D    103
     124       0       0       2       0                   XFORM      18D    104
     100      55       1       1       0       0     103       001010000D    105
     100       0      -3       1       0                     ARC      18D    106
     124      56       1       1       0       0       0       001000000D    107
     124       0       0       2       0                   XFORM      19D    108
     100      58       1       1       0       0     107       001010000D    109
     100       0      -3       1       0                     ARC      19D    110
     124      59       1       1       0       0       0       001000000D    111
     124       0       0       1       0                   XFORM      20D    112
     100      60       1       1       0       0     111       001010000D    113
     100       0      -3       1       0                     ARC      20D    114
     124      61       1       1       0       0       0       001000000D    115
     124       0       0       1       0                   XFORM      21D    116
     100      62       1       1       0       0     115       001010000D    117
     100       0      -3       1       0                     ARC      21D    118
     124      63       1       1       0       0       0       001000000D    119
     124       0       0       1       0                   XFORM      22D    120
     100      64       1       1       0       0     119       001010000D    121
     100       0      -3       1       0                     ARC      22D    122
     110      65       1       1       0       0       0       001010000D    123
     110       0      -3       1       0                    LINE       9D    124
     124      66       1       1       0       0       0       001000000D    125
     124       0       0       1       0                   XFORM      23D    126
     100      67       1       1       0       0     125       001010000D    127
     100       0      -3       1       0                     ARC      23D    128
     110      68       1       1       0       0       0       001010000D    129
     110       0      -3       1       0                    LINE      10D    130
     124      69       1       1       0       0       0       001000000D    131
     124       0       0       1       0                   XFORM      24D    132
     100      70       1       1       0       0     131       001010000D    133
     100       0      -3       1       0                     ARC      24D    134
     110      71       1       1       0       0       0       001010000D    135
     110       0      -3       1       0                    LINE      11D    136
     124      72       1       1       0       0       0       001000000D    137
     124       0       0       1       0                   XFORM      25D    138
     100      73       1       1       0       0     137       001010000D    139
     100       0      -3       1       0                     ARC      25D    140
     110      74       1       1       0       0       0       001010000D    141
     110       0      -3       1       0                    LINE      12D    142
     124      75       1       1       0       0       0       001000000D    143
     124       0       0       2       0                   XFORM      26D    144
     100      77       1       1       0       0     143       001010000D    145
     100       0      -3       1       0                     ARC      26D    146
     124      78       1       1       0       0       0       001000000D    147
     124       0       0       2       0                   XFORM      27D    148
     100      80       1       1       0       0     147       001010000D    149
     100       0      -3       1       0                     ARC      27D    150
     124      81       1       1       0       0       0       001000000D    151
     124       0       0       1       0                   XFORM      28D    152
     100      82       1       1       0       0     151       001010000D    153
     100       0      -3       1       0                     ARC      28D    154
     124      83       1       1       0       0       0       001000000D    155
     124       0       0       2       0                   XFORM      29D    156
     100      85       1       1       0       0     155       001010000D    157
     100       0      -3       1       0                     ARC      29D    158
     110      86       1       1       0       0       0       001010000D    159
     110       0      -3       1       0                    LINE      13D    160
     110      87       1       1       0       0       0       001010000D    161
     110       0      -3       1       0                    LINE      14D    162
     124      88       1       1       0       0       0       001000000D    163
     124       0       0       1       0                   XFORM      30D    164
     100      89       1       1       0       0     163       001010000D    165
     100       0      -3       1       0                     ARC      30D    166
     124      90       1       1       0       0       0       001000000D    167
     124       0       0       1       0                   XFORM      31D    168
     100      91       1       1       0       0     167       001010000D    169
     100       0      -3       1       0                     ARC      31D    170
     124      92       1       1       0       0       0       001000000D    171
     124       0       0       2       0                   XFORM      32D    172
     100      94       1       1       0       0     171       001010000D    173
     100       0      -3       1       0                     ARC      32D    174
     502      95       1       1       0       0       0       001010000D    175
     502       0      -3      10       1                  VERTEX       1D    176
     504     105       1       1       0       0       0       000010001D    177
     504       0      -3      13       1                    EDGE       1D    178
     128     118       1       1       0       0       0       001010000D    179
     128       0      -3       4       0                  SPLSRF       1D    180
     508     122       1       1       0       0       0       001010000D    181
     508       0       0       1       1                EDGELOOP       1D    182
     508     123       1       1       0       0       0       001010000D    183
     508       0       0       1       1                EDGELOOP       2D    184
     510     124       1       1       0       0       0       000010000D    185
     510       0      -3       1       1                    FACE       1D    186
     110     125       1       1       0       0       0       001010000D    187
     110       0      -3       1       0                    LINE      15D    188
     110     126       1       1       0       0       0       001010000D    189
     110       0      -3       1       0                    LINE      16D    190
     120     127       1       1       0       0       0       001010000D    191
     120       0      -3       1       0                    SREV       1D    192
     508     128       1       1       0       0       0       001010000D    193
     508       0       0       1       1                EDGELOOP       3D    194
     510     129       1       1       0       0       0       000010000D    195
     510       0      -3       1       1                    FACE       2D    196
     110     130       1       1       0       0       0       001010000D    197
     110       0      -3       1       0                    LINE      17D    198
     110     131       1       1       0       0       0       001010000D    199
     110       0      -3       1       0                    LINE      18D    200
     120     132       1       1       0       0       0       001010000D    201
     120       0      -3       1       0                    SREV       2D    202
     508     133       1       1       0       0       0       001010000D    203
     508       0       0       1       1                EDGELOOP       4D    204
     510     134       1       1       0       0       0       000010000D    205
     510       0      -3       1       1                    FACE       3D    206
     128     135       1       1       0       0       0       001010000D    207
     128       0      -3       6       0                  SPLSRF       2D    208
     508     141       1       1       0       0       0       001010000D    209
     508       0       0       1       1                EDGELOOP       5D    210
     508     142       1       1       0       0       0       001010000D    211
     508       0       0       1       1                EDGELOOP       6D    212
     510     143       1       1       0       0       0       000010000D    213
     510       0      -3       1       1                    FACE       4D    214
     110     144       1       1       0       0       0       001010000D    215
     110       0       8       1       0                    LINE      19D    216
     110     145       1       1       0       0       0       001010000D    217
     110       0       8       1       0                    LINE      20D    218
     120     146       1       1       0       0       0       001010000D    219
     120       0       8       1       0                    SREV       3D    220
     508     147       1       1       0       0       0       001010000D    221
     508       0       0       1       1                EDGELOOP       7D    222
     510     148       1       1       0       0       0       000010000D    223
     510       0       8       1       1                    FACE       5D    224
     110     149       1       1       0       0       0       001010000D    225
     110       0       8       1       0                    LINE      21D    226
     110     150       1       1       0       0       0       001010000D    227
     110       0       8       1       0                    LINE      22D    228
     120     151       1       1       0       0       0       001010000D    229
     120       0       8       1       0                    SREV       4D    230
     508     152       1       1       0       0       0       001010000D    231
     508       0       0       1       1                EDGELOOP       8D    232
     510     153       1       1       0       0       0       000010000D    233
     510       0       8       1       1                    FACE       6D    234
     128     154       1       1       0       0       0       001010000D    235
     128       0      -3       6       0                  SPLSRF       3D    236
     508     160       1       1       0       0       0       001010000D    237
     508       0       0       1       1                EDGELOOP       9D    238
     508     161       1       1       0       0       0       001010000D    239
     508       0       0       1       1                EDGELOOP      10D    240
     510     162       1       1       0       0       0       000010000D    241
     510       0      -3       1       1                    FACE       7D    242
     110     163       1       1       0       0       0       001010000D    243
     110       0      -3       1       0                    LINE      23D    244
     110     164       1       1       0       0       0       001010000D    245
     110       0      -3       1       0                    LINE      24D    246
     120     165       1       1       0       0       0       001010000D    247
     120       0      -3       1       0                    SREV       5D    248
     508     166       1       1       0       0       0       001010000D    249
     508       0       0       1       1                EDGELOOP      11D    250
     510     167       1       1       0       0       0       000010000D    251
     510       0      -3       1       1                    FACE       8D    252
     110     168       1       1       0       0       0       001010000D    253
     110       0      -3       1       0                    LINE      25D    254
     110     169       1       1       0       0       0       001010000D    255
     110       0      -3       1       0                    LINE      26D    256
     120     170       1       1       0       0       0       001010000D    257
     120       0      -3       1       0                    SREV       6D    258
     508     171       1       1       0       0       0       001010000D    259
     508       0       0       1       1                EDGELOOP      12D    260
     510     172       1       1       0       0       0       000010000D    261
     510       0      -3       1       1                    FACE       9D    262
     128     173       1       1       0       0       0       001010000D    263
     128       0      -3       4       0                  SPLSRF       4D    264
     508     177       1       1       0       0       0       001010000D    265
     508       0       0       1       1                EDGELOOP      13D    266
     508     178       1       1       0       0       0       001010000D    267
     508       0       0       1       1                EDGELOOP      14D    268
     510     179       1       1       0       0       0       000010000D    269
     510       0      -3       1       1                    FACE      10D    270
     110     180       1       1       0       0       0       001010000D    271
     110       0       8       1       0                    LINE      27D    272
     110     181       1       1       0       0       0       001010000D    273
     110       0       8       1       0                    LINE      28D    274
     120     182       1       1       0       0       0       001010000D    275
     120       0       8       1       0                    SREV       7D    276
     508     183       1       1       0       0       0       001010000D    277
     508       0       0       1       1                EDGELOOP      15D    278
     510     184       1       1       0       0       0       000010000D    279
     510       0       8       1       1                    FACE      11D    280
     110     185       1       1       0       0       0       001010000D    281
     110       0       8       1       0                    LINE      29D    282
     110     186       1       1       0       0       0       001010000D    283
     110       0       8       1       0                    LINE      30D    284
     120     187       1       1       0       0       0       001010000D    285
     120       0       8       1       0                    SREV       8D    286
     508     188       1       1       0       0       0       001010000D    287
     508       0       0       1       1                EDGELOOP      16D    288
     510     189       1       1       0       0       0       000010000D    289
     510       0       8       1       1                    FACE      12D    290
     110     190       1       1       0       0       0       001010000D    291
     110       0       8       1       0                    LINE      31D    292
     124     191       1       1       0       0       0       001000000D    293
     124       0       0       4       0                   XFORM      33D    294
     100     195       1       1       0       0     293       001010000D    295
     100       0       8       1       0                     ARC      33D    296
     120     196       1       1       0       0       0       001010000D    297
     120       0       8       1       0                    SREV       9D    298
     508     197       1       1       0       0       0       001010000D    299
     508       0       0       1       1                EDGELOOP      17D    300
     510     198       1       1       0       0       0       000010000D    301
     510       0       8       1       1                    FACE      13D    302
     110     199       1       1       0       0       0       001010000D    303
     110       0       8       1       0                    LINE      32D    304
     124     200       1       1       0       0       0       001000000D    305
     124       0       0       4       0                   XFORM      34D    306
     100     204       1       1       0       0     305       001010000D    307
     100       0       8       1       0                     ARC      34D    308
     120     205       1       1       0       0       0       001010000D    309
     120       0       8       1       0                    SREV      10D    310
     508     206       1       1       0       0       0       001010000D    311
     508       0       0       1       1                EDGELOOP      18D    312
     510     207       1       1       0       0       0       000010000D    313
     510       0       8       1       1                    FACE      14D    314
     110     208       1       1       0       0       0       001010000D    315
     110       0       8       1       0                    LINE      33D    316
     110     209       1       1       0       0       0       001010000D    317
     110       0       8       1       0                    LINE      34D    318
     120     210       1       1       0       0       0       001010000D    319
     120       0       8       1       0                    SREV      11D    320
     508     211       1       1       0       0       0       001010000D    321
     508       0       0       1       1                EDGELOOP      19D    322
     510     212       1       1       0       0       0       000010000D    323
     510       0       8       1       1                    FACE      15D    324
     128     213       1       1       0       0       0       001010000D    325
     128       0       8       8       0                  SPLSRF       5D    326
     508     221       1       1       0       0       0       001010000D    327
     508       0       0       1       1                EDGELOOP      20D    328
     510     222       1       1       0       0       0       000010000D    329
     510       0       8       1       1                    FACE      16D    330
     110     223       1       1       0       0       0       001010000D    331
     110       0       8       1       0                    LINE      35D    332
     110     224       1       1       0       0       0       001010000D    333
     110       0       8       1       0                    LINE      36D    334
     120     225       1       1       0       0       0       001010000D    335
     120       0       8       1       0                    SREV      12D    336
     508     226       1       1       0       0       0       001010000D    337
     508       0       0       1       1                EDGELOOP      21D    338
     510     227       1       1       0       0       0       000010000D    339
     510       0       8       1       1                    FACE      17D    340
     110     228       1       1       0       0       0       001010000D    341
     110       0       8       1       0                    LINE      37D    342
     110     229       1       1       0       0       0       001010000D    343
     110       0       8       1       0                    LINE      38D    344
     120     230       1       1       0       0       0       001010000D    345
     120       0       8       1       0                    SREV      13D    346
     508     231       1       1       0       0       0       001010000D    347
     508       0       0       1       1                EDGELOOP      22D    348
     510     232       1       1       0       0       0       000010000D    349
     510       0       8       1       1                    FACE      18D    350
     110     233       1       1       0       0       0       001010000D    351
     110       0       8       1       0                    LINE      39D    352
     110     234       1       1       0       0       0       001010000D    353
     110       0       8       1       0                    LINE      40D    354
     120     235       1       1       0       0       0       001010000D    355
     120       0       8       1       0                    SREV      14D    356
     508     236       1       1       0       0       0       001010000D    357
     508       0       0       1       1                EDGELOOP      23D    358
     510     237       1       1       0       0       0       000010000D    359
     510       0       8       1       1                    FACE      19D    360
     110     238       1       1       0       0       0       001010000D    361
     110       0       8       1       0                    LINE      41D    362
     124     239       1       1       0       0       0       001000000D    363
     124       0       0       4       0                   XFORM      35D    364
     100     243       1       1       0       0     363       001010000D    365
     100       0       8       1       0                     ARC      35D    366
     120     244       1       1       0       0       0       001010000D    367
     120       0       8       1       0                    SREV      15D    368
     508     245       1       1       0       0       0       001010000D    369
     508       0       0       1       1                EDGELOOP      24D    370
     510     246       1       1       0       0       0       000010000D    371
     510       0       8       1       1                    FACE      20D    372
     110     247       1       1       0       0       0       001010000D    373
     110       0       8       1       0                    LINE      42D    374
     124     248       1       1       0       0       0       001000000D    375
     124       0       0       4       0                   XFORM      36D    376
     100     252       1       1       0       0     375       001010000D    377
     100       0       8       1       0                     ARC      36D    378
     120     253       1       1       0       0       0       001010000D    379
     120       0       8       1       0                    SREV      16D    380
     508     254       1       1       0       0       0       001010000D    381
     508       0       0       1       1                EDGELOOP      25D    382
     510     255       1       1       0       0       0       000010000D    383
     510       0       8       1       1                    FACE      21D    384
     110     256       1       1       0       0       0       001010000D    385
     110       0       8       1       0                    LINE      43D    386
     110     257       1       1       0       0       0       001010000D    387
     110       0       8       1       0                    LINE      44D    388
     120     258       1       1       0       0       0       001010000D    389
     120       0       8       1       0                    SREV      17D    390
     508     259       1       1       0       0       0       001010000D    391
     508       0       0       1       1                EDGELOOP      26D    392
     510     260       1       1       0       0       0       000010000D    393
     510       0       8       1       1                    FACE      22D    394
     128     261       1       1       0       0       0       001010000D    395
     128       0       8       8       0                  SPLSRF       6D    396
     508     269       1       1       0       0       0       001010000D    397
     508       0       0       1       1                EDGELOOP      27D    398
     510     270       1       1       0       0       0       000010000D    399
     510       0       8       1       1                    FACE      23D    400
     110     271       1       1       0       0       0       001010000D    401
     110       0       8       1       0                    LINE      45D    402
     110     272       1       1       0       0       0       001010000D    403
     110       0       8       1       0                    LINE      46D    404
     120     273       1       1       0       0       0       001010000D    405
     120       0       8       1       0                    SREV      18D    406
     508     274       1       1       0       0       0       001010000D    407
     508       0       0       1       1                EDGELOOP      28D    408
     510     275       1       1       0       0       0       000010000D    409
     510       0       8       1       1                    FACE      24D    410
     514     276       1       1       0       0       0       000000000D    411
     514       0      -3       3       1                   SHELL       1D    412
     186     279       1       1       0       0       0       000000000D    413
     186       0      -3       1       0                    MSBR       1D    414
     406     280       1       1       0       0       0       001000000D    415
     406       0       0       1      15                    PROP       1D    416
     110     281       1       4       0       0       0       000000000D    417
     110       0       5       1       0                    LINE      47D    418
     406     282       1       1       0       0       0       001000000D    419
     406       0       0       1      15                    PROP       2D    420
     110     283       1       4       0       0       0       001000000D    421
     110       0      -3       1       0                    LINE      48D    422
     406     284       1       1       0       0       0       001000000D    423
     406       0       0       1      15                    PROP       3D    424
     402     285       1       1       0       0       0       000000300D    425
     402       0       0       1       7                   LAYER       1D    426
314,1.1D0,1.2D0,1D2;                                                   1P      1
314,7.8431D0,7.8431D0,7.8431D0;                                        3P      2
314,1.1D1,1.1D1,1.1D1;                                                 5P      3
314,3.92D1,1.2D0,1.2D0;                                                7P      4
314,4.1D1,0D0,2.2D1;                                                   9P      5
314,8.784D1,9.49D1,1D2;                                               11P      6
314,9.6D1,9.6D1,9.6D1;                                                13P      7
314,9.8D1,6.27D1,0D0;                                                 15P      8
314,1D2,1D2,9.49D1;                                                   17P      9
124,0D0,0D0,1D0,-2.5D0,-1D0,0D0,0D0,1.25D0,0D0,-1D0,0D0,0D0;          19P     10
100,0D0,0D0,0D0,1.25D0,0D0,-1.25D0,0D0;                               21P     11
124,0D0,0D0,1D0,-2.5D0,1D0,0D0,0D0,1.25D0,0D0,1D0,0D0,0D0;            23P     12
100,0D0,0D0,0D0,1.25D0,0D0,-1.25D0,0D0;                               25P     13
124,0D0,0D0,-1D0,-2.5D0,0D0,1D0,0D0,1.25D0,1D0,0D0,0D0,0D0;           27P     14
100,0D0,0D0,0D0,4D-1,0D0,0D0,-4D-1;                                   29P     15
124,0D0,0D0,1D0,1.4D0,-1D0,0D0,0D0,1.25D0,0D0,-1D0,0D0,0D0;           31P     16
100,0D0,0D0,0D0,1.25D0,0D0,-1.25D0,0D0;                               33P     17
110,-2.5D0,0D0,0D0,1.4D0,0D0,0D0;                                     35P     18
124,0D0,0D0,1D0,2.4D0,-1D0,0D0,0D0,1.25D0,0D0,-1D0,0D0,0D0;           37P     19
100,0D0,0D0,0D0,1.25D0,0D0,-1.25D0,0D0;                               39P     20
110,2.4D0,0D0,0D0,2.5D0,0D0,0D0;                                      41P     21
124,0D0,0D0,-1D0,1.4D0,1D0,0D0,0D0,1.25D0,0D0,-1D0,0D0,0D0;           43P     22
100,0D0,0D0,0D0,1.26D0,0D0,-1.26D0,0D0;                               45P     23
124,0D0,0D0,1D0,1.4D0,1D0,0D0,0D0,1.25D0,0D0,1D0,0D0,0D0;             47P     24
100,0D0,0D0,0D0,1.26D0,0D0,-1.26D0,0D0;                               49P     25
110,2.4D0,2.51D0,0D0,1.4D0,2.51D0,0D0;                                51P     26
110,2.4D0,-1D-2,0D0,1.4D0,-1D-2,0D0;                                  53P     27
124,0D0,0D0,-1D0,2.4D0,1D0,0D0,0D0,1.25D0,0D0,-1D0,0D0,0D0;           55P     28
100,0D0,0D0,0D0,1.26D0,0D0,-1.26D0,0D0;                               57P     29
124,0D0,0D0,1D0,2.4D0,1D0,0D0,0D0,1.25D0,0D0,1D0,0D0,0D0;             59P     30
100,0D0,0D0,0D0,1.26D0,0D0,-1.26D0,0D0;                               61P     31
124,0D0,0D0,1D0,1.4D0,1D0,0D0,0D0,1.25D0,0D0,1D0,0D0,0D0;             63P     32
100,0D0,0D0,0D0,1.25D0,0D0,-1.25D0,0D0;                               65P     33
110,-2.5D0,2.5D0,0D0,1.4D0,2.5D0,0D0;                                 67P     34
124,0D0,0D0,1D0,2.4D0,1D0,0D0,0D0,1.25D0,0D0,1D0,0D0,0D0;             69P     35
100,0D0,0D0,0D0,1.25D0,0D0,-1.25D0,0D0;                               71P     36
110,2.4D0,2.5D0,0D0,2.5D0,2.5D0,0D0;                                  73P     37
124,0D0,0D0,1D0,2.5D0,-1D0,0D0,0D0,1.25D0,0D0,-1D0,0D0,0D0;           75P     38
100,0D0,0D0,0D0,1.25D0,0D0,-1.25D0,0D0;                               77P     39
124,0D0,0D0,1D0,2.5D0,1D0,0D0,0D0,1.25D0,0D0,1D0,0D0,0D0;             79P     40
100,0D0,0D0,0D0,1.25D0,0D0,-1.25D0,0D0;                               81P     41
124,0D0,0D0,1D0,2.5D0,-1D0,0D0,0D0,1.25D0,0D0,-1D0,0D0,0D0;           83P     42
100,0D0,0D0,0D0,4D-1,0D0,0D0,-4D-1;                                   85P     43
124,0D0,0D0,-1D0,2.5D0,-1D0,0D0,0D0,1.25D0,0D0,1D0,0D0,0D0;           87P     44
100,0D0,0D0,0D0,4D-1,0D0,0D0,4D-1;                                    89P     45
110,6.599999999840D0,1.25D0,4D-1,2.5D0,1.25D0,4D-1;                   91P     46
110,6.599999999597D0,8.5D-1,0D0,2.5D0,8.5D-1,0D0;                     93P     47
124,1D0,1.085403322776D-9,0D0,6.6D0,-1.085403322776D-9,1D0,0D0,       95P     48
3.5D-1,0D0,0D0,1D0,0D0;                                               95P     49
100,0D0,0D0,0D0,5D-1,0D0,-1.079323932922D-9,5D-1;                     97P     50
124,0D0,0D0,1D0,6.6D0,0D0,-1D0,0D0,1.25D0,1D0,0D0,0D0,0D0;            99P     51
100,0D0,0D0,0D0,4D-1,0D0,0D0,4D-1;                                   101P     52
124,1D0,6.460228031536D-10,0D0,6.6D0,-6.460228031536D-10,1D0,        103P     53
0D0,3.5D-1,0D0,0D0,1D0,4D-1;                                         103P     54
100,0D0,0D0,0D0,9D-1,0D0,-1.221816792589D-9,9D-1;                    105P     55
124,-1D0,0D0,-1.899577717346D-11,7.5D0,1.899577717346D-11,0D0,       107P     56
-1D0,3.499999999829D-1,0D0,-1D0,0D0,0D0;                             107P     57
100,0D0,0D0,0D0,4D-1,0D0,0D0,-4D-1;                                  109P     58
124,0D0,0D0,-1D0,6.6D0,0D0,1D0,0D0,1.25D0,1D0,0D0,0D0,0D0;           111P     59
100,0D0,0D0,0D0,4D-1,0D0,0D0,-4D-1;                                  113P     60
124,0D0,-1D0,0D0,7.5D0,0D0,0D0,-1D0,-3.5D0,1D0,0D0,0D0,0D0;          115P     61
100,0D0,0D0,0D0,4D-1,0D0,0D0,4D-1;                                   117P     62
124,0D0,1D0,0D0,7.5D0,0D0,0D0,1D0,-3.5D0,1D0,0D0,0D0,0D0;            119P     63
100,0D0,0D0,0D0,4D-1,0D0,0D0,-4D-1;                                  121P     64
110,7.1D0,-3.5D0,0D0,7.1D0,3.499999997291D-1,0D0;                    123P     65
124,0D0,-1D0,0D0,7.5D0,0D0,0D0,-1D0,3.5D-1,1D0,0D0,0D0,0D0;          125P     66
100,0D0,0D0,0D0,4D-1,0D0,0D0,4D-1;                                   127P     67
110,7.5D0,-3.5D0,4D-1,7.5D0,3.499999998546D-1,4D-1;                  129P     68
124,0D0,0D0,1D0,-2.5D0,0D0,-1D0,0D0,1.25D0,1D0,0D0,0D0,0D0;          131P     69
100,0D0,0D0,0D0,4D-1,0D0,0D0,4D-1;                                   133P     70
110,-2.5D0,8.5D-1,0D0,-6.599999999729D0,8.5D-1,0D0;                  135P     71
124,0D0,0D0,1D0,-6.6D0,0D0,-1D0,0D0,1.25D0,1D0,0D0,0D0,0D0;          137P     72
100,0D0,0D0,0D0,4D-1,0D0,0D0,4D-1;                                   139P     73
110,-2.5D0,1.25D0,4D-1,-6.599999999855D0,1.25D0,4D-1;                141P     74
124,-1.899591595134D-11,0D0,1D0,-6.599999999983D0,-1D0,0D0,          143P     75
-1.899579452069D-11,1.25D0,0D0,-1D0,0D0,0D0;                         143P     76
100,0D0,0D0,0D0,4D-1,0D0,0D0,-4D-1;                                  145P     77
124,1.085401990508D-9,-1D0,0D0,-6.6D0,1D0,1.085401990508D-9,0D0,     147P     78
3.5D-1,0D0,0D0,1D0,0D0;                                              147P     79
100,0D0,0D0,0D0,5D-1,0D0,-1.079323932922D-9,5D-1;                    149P     80
124,0D0,1D0,0D0,-7.5D0,0D0,0D0,1D0,3.5D-1,1D0,0D0,0D0,0D0;           151P     81
100,0D0,0D0,0D0,4D-1,0D0,0D0,4D-1;                                   153P     82
124,6.460234816233D-10,-1D0,0D0,-6.6D0,1D0,6.460234816233D-10,       155P     83
0D0,3.5D-1,0D0,0D0,1D0,4D-1;                                         155P     84
100,0D0,0D0,0D0,9D-1,0D0,-1.221817591950D-9,9D-1;                    157P     85
110,-7.5D0,3.499999998399D-1,4D-1,-7.5D0,-3.5D0,4D-1;                159P     86
110,-7.1D0,3.499999995974D-1,0D0,-7.1D0,-3.5D0,0D0;                  161P     87
124,1D0,0D0,0D0,-7.5D0,0D0,0D0,-1D0,-3.5D0,0D0,1D0,0D0,0D0;          163P     88
100,0D0,0D0,0D0,4D-1,0D0,0D0,4D-1;                                   165P     89
124,1D0,0D0,0D0,-7.5D0,0D0,0D0,1D0,-3.5D0,0D0,-1D0,0D0,0D0;          167P     90
100,0D0,0D0,0D0,4D-1,0D0,0D0,-4D-1;                                  169P     91
124,1D0,0D0,0D0,-7.5D0,0D0,0D0,1D0,3.499999999812D-1,0D0,-1D0,       171P     92
0D0,0D0;                                                             171P     93
100,0D0,0D0,0D0,4D-1,0D0,0D0,-4D-1;                                  173P     94
502,28,-2.5D0,0D0,0D0,-2.5D0,2.5D0,0D0,2.5D0,0D0,0D0,2.5D0,          175P     95
2.5D0,0D0,-2.5D0,8.5D-1,0D0,-6.599999999729D0,8.5D-1,0D0,-2.5D0,     175P     96
1.25D0,4D-1,-6.599999999855D0,1.25D0,4D-1,6.599999999597D0,          175P     97
8.5D-1,0D0,2.5D0,8.5D-1,0D0,6.599999999840D0,1.25D0,4D-1,2.5D0,      175P     98
1.25D0,4D-1,2.4D0,2.51D0,0D0,1.4D0,2.51D0,0D0,2.4D0,-1D-2,0D0,       175P     99
1.4D0,-1D-2,0D0,1.4D0,0D0,0D0,1.4D0,2.5D0,0D0,2.4D0,0D0,0D0,         175P    100
2.4D0,2.5D0,0D0,-7.1D0,3.499999994634D-1,0D0,-7.5D0,                 175P    101
3.499999993596D-1,4D-1,7.1D0,3.499999994573D-1,0D0,7.5D0,            175P    102
3.499999994186D-1,4D-1,-7.1D0,-3.5D0,0D0,-7.5D0,-3.5D0,4D-1,         175P    103
7.5D0,-3.5D0,4D-1,7.1D0,-3.5D0,0D0;                                  175P    104
504,46,21,175,1,175,2,25,175,2,175,1,77,175,3,175,4,81,175,4,        177P    105
175,3,135,175,5,175,6,141,175,7,175,8,93,175,9,175,10,91,175,11,     177P    106
175,12,89,175,10,175,12,51,175,13,175,14,53,175,15,175,16,49,        177P    107
175,14,175,16,61,175,13,175,15,45,175,14,175,16,57,175,13,175,       177P    108
15,33,175,17,175,18,39,175,19,175,20,65,175,18,175,17,71,175,20,     177P    109
175,19,35,175,1,175,17,41,175,19,175,3,67,175,2,175,18,73,175,       177P    110
20,175,4,149,175,6,175,21,157,175,8,175,22,153,175,22,175,21,        177P    111
139,175,8,175,6,145,175,6,175,8,173,175,21,175,22,97,175,23,175,     177P    112
9,105,175,24,175,11,101,175,11,175,9,127,175,24,175,23,113,175,      177P    113
11,175,9,109,175,23,175,24,165,175,25,175,26,169,175,25,175,26,      177P    114
117,175,27,175,28,121,175,27,175,28,133,175,7,175,5,161,175,21,      177P    115
175,25,159,175,22,175,26,123,175,28,175,23,129,175,27,175,24,29,     177P    116
175,7,175,5,85,175,10,175,12;                                        177P    117
128,1,1,1,1,0,0,1,0,0,-2.55D0,-2.55D0,5D-2,5D-2,-1.3D0,-1.3D0,       179P    118
1.3D0,1.3D0,1D0,1D0,1D0,1D0,-2.5D0,2.55D0,1.3D0,-2.5D0,-5D-2,        179P    119
1.3D0,-2.5D0,2.55D0,-1.3D0,-2.5D0,-5D-2,-1.3D0,-2.55D0,5D-2,         179P    120
-1.3D0,1.3D0;                                                        179P    121
508,2,0,177,1,1,0,0,177,2,1,0;                                       181P    122
508,2,0,177,40,0,0,0,177,45,1,0;                                     183P    123
510,179,2,0,181,183;                                                 185P    124
110,-2.5D0,1.25D0,0D0,-1.5D0,1.25D0,0D0;                             187P    125
110,-2.6D0,0D0,0D0,2.6D0,0D0,0D0;                                    189P    126
120,187,189,-6.283185307180D-2,3.204424506662D0;                     191P    127
508,4,0,177,16,1,0,0,177,22,0,0,0,177,1,0,0,0,177,20,1,0;            193P    128
510,191,1,0,193;                                                     195P    129
110,-2.5D0,1.25D0,0D0,-1.5D0,1.25D0,0D0;                             197P    130
110,-2.6D0,0D0,0D0,2.6D0,0D0,0D0;                                    199P    131
120,197,199,-6.283185307180D-2,3.204424506662D0;                     201P    132
508,4,0,177,17,0,0,0,177,21,1,0,0,177,3,1,0,0,177,23,0,0;            203P    133
510,201,1,0,203;                                                     205P    134
128,1,1,1,1,0,0,1,0,0,-1.3104D0,-1.3104D0,1.3104D0,1.3104D0,         207P    135
-1.312477009510D0,-1.312477009510D0,1.312477009510D0,                207P    136
1.312477009510D0,1D0,1D0,1D0,1D0,1.4D0,2.5604D0,                     207P    137
1.312477009510D0,1.4D0,-6.04D-2,1.312477009510D0,1.4D0,2.5604D0,     207P    138
-1.312477009510D0,1.4D0,-6.04D-2,-1.312477009510D0,-1.3104D0,        207P    139
1.3104D0,-1.312477009510D0,1.312477009510D0;                         207P    140
508,2,0,177,14,0,0,0,177,12,1,0;                                     209P    141
508,2,0,177,16,0,0,0,177,18,0,0;                                     211P    142
510,207,2,0,209,211;                                                 213P    143
110,-1.958478855591D1,1.25D0,0D0,-1.858478855591D1,1.25D0,0D0;       215P    144
110,1.379489804203D0,-1D-2,0D0,2.420510195797D0,-1D-2,0D0;           217P    145
120,215,217,-6.346017160251D0,-3.078760800518D0;                     219P    146
508,4,0,177,10,1,0,0,177,14,1,0,0,177,11,0,0,0,177,15,0,0;           221P    147
510,219,1,0,221;                                                     223P    148
110,-1.958478855591D1,1.25D0,0D0,-1.858478855591D1,1.25D0,0D0;       225P    149
110,1.379489804203D0,-1D-2,0D0,2.420510195797D0,-1D-2,0D0;           227P    150
120,225,227,-3.204424506662D0,6.283185307180D-2;                     229P    151
508,4,0,177,10,0,0,0,177,13,1,0,0,177,11,1,0,0,177,12,0,0;           231P    152
510,229,1,0,231;                                                     233P    153
128,1,1,1,1,0,0,1,0,0,-1.3104D0,-1.3104D0,1.3104D0,1.3104D0,         235P    154
-1.312477009510D0,-1.312477009510D0,1.312477009510D0,                235P    155
1.312477009510D0,1D0,1D0,1D0,1D0,2.4D0,2.5604D0,                     235P    156
1.312477009510D0,2.4D0,-6.04D-2,1.312477009510D0,2.4D0,2.5604D0,     235P    157
-1.312477009510D0,2.4D0,-6.04D-2,-1.312477009510D0,-1.3104D0,        235P    158
1.3104D0,-1.312477009510D0,1.312477009510D0;                         235P    159
508,2,0,177,13,0,0,0,177,15,1,0;                                     237P    160
508,2,0,177,17,1,0,0,177,19,1,0;                                     239P    161
510,235,2,0,237,239;                                                 241P    162
110,-2.5D0,1.25D0,0D0,-1.5D0,1.25D0,0D0;                             243P    163
110,-2.6D0,0D0,0D0,2.6D0,0D0,0D0;                                    245P    164
120,243,245,3.078760800518D0,6.346017160251D0;                       247P    165
508,4,0,177,18,1,0,0,177,20,0,0,0,177,2,0,0,0,177,22,1,0;            249P    166
510,247,1,0,249;                                                     251P    167
110,-2.5D0,1.25D0,0D0,-1.5D0,1.25D0,0D0;                             253P    168
110,-2.6D0,0D0,0D0,2.6D0,0D0,0D0;                                    255P    169
120,253,255,3.078760800518D0,6.346017160251D0;                       257P    170
508,4,0,177,19,0,0,0,177,23,1,0,0,177,4,1,0,0,177,21,0,0;            259P    171
510,257,1,0,259;                                                     261P    172
128,1,1,1,1,0,0,1,0,0,-2.55D0,-2.55D0,5D-2,5D-2,-1.3D0,-1.3D0,       263P    173
1.3D0,1.3D0,1D0,1D0,1D0,1D0,2.5D0,2.55D0,1.3D0,2.5D0,-5D-2,          263P    174
1.3D0,2.5D0,2.55D0,-1.3D0,2.5D0,-5D-2,-1.3D0,-2.55D0,5D-2,           263P    175
-1.3D0,1.3D0;                                                        263P    176
508,2,0,177,3,0,0,0,177,4,0,0;                                       265P    177
508,2,0,177,46,1,0,0,177,9,0,0;                                      267P    178
510,263,2,0,265,267;                                                 269P    179
110,6.626269886829D0,1.25D0,0D0,5.626269886829D0,1.25D0,0D0;         271P    180
110,6.682D0,1.25D0,4D-1,2.418D0,1.25D0,4D-1;                         273P    181
120,271,273,-9.424777960769D-2,4.806636759992D0;                     275P    182
508,4,0,177,46,0,0,0,177,7,0,0,0,177,34,0,0,0,177,8,1,0;             277P    183
510,275,1,0,277;                                                     279P    184
110,2.473730113171D0,1.25D0,0D0,3.473730113171D0,1.25D0,0D0;         281P    185
110,2.418D0,1.25D0,4D-1,6.682D0,1.25D0,4D-1;                         283P    186
120,281,283,-5.127548949277D-2,1.622071816288D0;                     285P    187
508,4,0,177,9,1,0,0,177,8,0,0,0,177,32,1,0,0,177,7,1,0;              287P    188
510,285,1,0,287;                                                     289P    189
110,6.6D0,3.5D-1,0D0,6.6D0,3.5D-1,1D0;                               291P    190
124,-3.821918303351D-3,7.446838733937D-2,9.972160509276D-1,          293P    191
6.532890241427D0,5.111254343105D-2,-9.959052967685D-1,               293P    192
7.456639841406D-2,1.247494445835D0,9.986855865809D-1,                293P    193
5.125523539609D-2,0D0,0D0;                                           293P    194
100,0D0,0D0,0D0,4D-1,0D0,-4.094941068637D-2,3.978984113620D-1;       295P    195
120,291,295,-1.686452391388D0,-3.361527924619D-2;                    297P    196
508,4,0,177,30,1,0,0,177,32,0,0,0,177,31,0,0,0,177,33,1,0;           299P    197
510,297,1,0,299;                                                     301P    198
110,6.6D0,3.5D-1,0D0,6.6D0,3.5D-1,1D0;                               303P    199
124,-9.953586998782D-1,-9.408914308381D-2,-2.020622999439D-2,        305P    200
7.499816249963D0,2.011655394724D-2,1.901575103454D-3,                305P    201
-9.997958332927D-1,3.318143930051D-1,9.410835687716D-2,              305P    202
-9.955619604856D-1,0D0,0D0;                                          305P    203
100,0D0,0D0,0D0,4D-1,0D0,7.495341977322D-2,-3.929147297624D-1;       307P    204
120,303,307,-2.081278688183D-2,1.632024324179D0;                     309P    205
508,4,0,177,30,0,0,0,177,35,1,0,0,177,31,1,0,0,177,34,1,0;           311P    206
510,309,1,0,311;                                                     313P    207
110,7.5D0,-3.525763513952D0,0D0,7.5D0,-2.525763513952D0,0D0;         315P    208
110,7.5D0,-3.577D0,4D-1,7.5D0,4.27D-1,4D-1;                          317P    209
120,315,317,-9.424777960769D-2,4.806636759992D0;                     319P    210
508,4,0,177,39,0,0,0,177,44,1,0,0,177,35,0,0,0,177,43,0,0;           321P    211
510,319,1,0,321;                                                     323P    212
128,1,1,1,1,0,0,1,0,0,-2.051019579711D-2,-2.051019579711D-2,         325P    213
8.205101957971D-1,8.205101957971D-1,-2.051019579711D-2,              325P    214
-2.051019579711D-2,8.205101957971D-1,8.205101957971D-1,1D0,1D0,      325P    215
1D0,1D0,7.079489804203D0,-3.5D0,-4.205101957971D-1,                  325P    216
7.920510195797D0,-3.5D0,-4.205101957971D-1,7.079489804203D0,         325P    217
-3.5D0,4.205101957971D-1,7.920510195797D0,-3.5D0,                    325P    218
4.205101957971D-1,-2.051019579711D-2,8.205101957971D-1,              325P    219
-2.051019579711D-2,8.205101957971D-1;                                325P    220
508,2,0,177,38,0,0,0,177,39,1,0;                                     327P    221
510,325,1,0,327;                                                     329P    222
110,7.5D0,3.762698868291D-1,0D0,7.5D0,-6.237301131709D-1,0D0;        331P    223
110,7.5D0,4.27D-1,4D-1,7.5D0,-3.577D0,4D-1;                          333P    224
120,331,333,-5.127548949277D-2,1.622071816288D0;                     335P    225
508,4,0,177,38,1,0,0,177,43,1,0,0,177,33,0,0,0,177,44,0,0;           337P    226
510,335,1,0,337;                                                     339P    227
110,-6.626269886829D0,1.25D0,0D0,-5.626269886829D0,1.25D0,0D0;       341P    228
110,-6.682D0,1.25D0,4D-1,-2.418D0,1.25D0,4D-1;                       343P    229
120,341,343,-5.127548949277D-2,1.622071816288D0;                     345P    230
508,4,0,177,40,1,0,0,177,5,1,0,0,177,27,0,0,0,177,6,0,0;             347P    231
510,345,1,0,347;                                                     349P    232
110,-2.473730113171D0,1.25D0,0D0,-3.473730113171D0,1.25D0,0D0;       351P    233
110,-2.418D0,1.25D0,4D-1,-6.682D0,1.25D0,4D-1;                       353P    234
120,351,353,-9.424777960769D-2,4.806636759992D0;                     355P    235
508,4,0,177,45,0,0,0,177,6,1,0,0,177,28,0,0,0,177,5,0,0;             357P    236
510,355,1,0,357;                                                     359P    237
110,-6.6D0,3.5D-1,0D0,-6.6D0,3.5D-1,1D0;                             361P    238
124,-2.011655394724D-2,-1.901575103454D-3,9.997958332927D-1,         363P    239
-6.581814393005D0,-9.953586998782D-1,-9.408914308381D-2,             363P    240
-2.020622999439D-2,1.249816249963D0,9.410835687716D-2,               363P    241
-9.955619604856D-1,0D0,0D0;                                          363P    242
100,0D0,0D0,0D0,4D-1,0D0,7.495341977322D-2,-3.929147297624D-1;       365P    243
120,361,365,-2.081278688182D-2,1.632024324179D0;                     367P    244
508,4,0,177,24,0,0,0,177,28,1,0,0,177,25,1,0,0,177,29,0,0;           369P    245
510,367,1,0,369;                                                     371P    246
110,-6.6D0,3.5D-1,0D0,-6.6D0,3.5D-1,1D0;                             373P    247
124,-5.111254343105D-2,9.959052967685D-1,-7.456639841406D-2,         375P    248
-7.497494445835D0,-3.821918303351D-3,7.446838733937D-2,              375P    249
9.972160509276D-1,2.828902414273D-1,9.986855865809D-1,               375P    250
5.125523539609D-2,0D0,0D0;                                           375P    251
100,0D0,0D0,0D0,4D-1,0D0,-4.094941068637D-2,3.978984113620D-1;       377P    252
120,373,377,-1.686452391388D0,-3.361527924619D-2;                    379P    253
508,4,0,177,24,1,0,0,177,26,0,0,0,177,25,0,0,0,177,27,1,0;           381P    254
510,379,1,0,381;                                                     383P    255
110,-7.5D0,-3.525763513952D0,0D0,-7.5D0,-2.525763513952D0,0D0;       385P    256
110,-7.5D0,-3.577D0,4D-1,-7.5D0,4.27D-1,4D-1;                        387P    257
120,385,387,-5.127548949277D-2,1.622071816288D0;                     389P    258
508,4,0,177,36,1,0,0,177,42,0,0,0,177,26,1,0,0,177,41,1,0;           391P    259
510,389,1,0,391;                                                     393P    260
128,1,1,1,1,0,0,1,0,0,-2.051019579711D-2,-2.051019579711D-2,         395P    261
8.205101957971D-1,8.205101957971D-1,-2.051019579711D-2,              395P    262
-2.051019579711D-2,8.205101957971D-1,8.205101957971D-1,1D0,1D0,      395P    263
1D0,1D0,-7.920510195797D0,-3.5D0,-4.205101957971D-1,                 395P    264
-7.079489804203D0,-3.5D0,-4.205101957971D-1,-7.920510195797D0,       395P    265
-3.5D0,4.205101957971D-1,-7.079489804203D0,-3.5D0,                   395P    266
4.205101957971D-1,-2.051019579711D-2,8.205101957971D-1,              395P    267
-2.051019579711D-2,8.205101957971D-1;                                395P    268
508,2,0,177,36,0,0,0,177,37,1,0;                                     397P    269
510,395,1,0,397;                                                     399P    270
110,-7.5D0,3.762698868291D-1,0D0,-7.5D0,-6.237301131709D-1,0D0;      401P    271
110,-7.5D0,4.27D-1,4D-1,-7.5D0,-3.577D0,4D-1;                        403P    272
120,401,403,-9.424777960769D-2,4.806636759992D0;                     405P    273
508,4,0,177,37,0,0,0,177,41,0,0,0,177,29,1,0,0,177,42,1,0;           407P    274
510,405,1,0,407;                                                     409P    275
514,24,185,0,195,1,205,1,213,0,223,1,233,1,241,1,251,1,261,1,        411P    276
269,1,279,1,289,1,301,1,313,1,323,1,329,1,339,1,349,1,359,1,371,     411P    277
1,383,1,393,1,399,1,409,1;                                           411P    278
186,411,1,0;                                                         413P    279
406,1,3HA_2;                                                         415P    280
110,-2.5D0,1.25D0,0D0,2.5D0,1.25D0,0D0,0,1,415;                      417P    281
406,1,3HA_4;                                                         419P    282
110,1.4D0,1.25D0,0D0,2.4D0,1.25D0,0D0,0,1,419;                       421P    283
406,1,17H02___PRT_ALL_AXES;                                          423P    284
402,1,417,0,1,423;                                                   425P    285
S      1G      4D    426P    285                                        T      1
